<svg width="201" height="100" viewBox="0 0 201 100" fill="none" xmlns="http://www.w3.org/2000/svg">
<path d="M111.296 50.0214C111.54 49.8973 112.033 49.6325 112.699 49.6325C113.283 49.6325 113.444 49.8851 113.424 50.0676C113.4 50.2722 113.189 50.5464 112.461 50.6038C111.863 50.6501 111.411 50.6518 110.807 50.9074C109.663 51.3889 108.488 52.274 106.999 53.9676C106.666 54.3472 105.981 55.1232 105.678 55.3195C105.464 55.4584 105.215 55.5399 104.895 55.5695C104.69 55.588 104.069 55.5824 104.031 55.4898C103.993 55.3953 104.115 55.2232 104.614 54.6565C105.604 53.514 106.575 52.3564 107.527 51.1842C107.774 50.8713 108.037 50.5407 108.188 50.3787C108.188 50.3787 108.587 50.2759 108.832 50.2426C109.279 50.1833 109.535 50.1703 109.604 50.2537C109.699 50.3685 109.55 50.4788 108.872 51.3167C108.682 51.551 108.444 51.8259 108.377 51.9046C108.321 51.9731 108.124 52.1871 108.186 52.2362C108.294 52.3204 108.64 51.9602 108.835 51.7917C109.441 51.264 110.355 50.501 111.296 50.0214ZM112.643 54.6427C112.627 55.1306 112.848 55.5777 113.385 55.5777C113.865 55.5777 114.503 55.3259 115.077 54.837C116.34 53.7629 117.202 52.1092 117.315 51.2537C117.413 50.4981 117.1 50.3954 116.832 50.3778C116.515 50.3565 116.041 50.539 115.698 50.7232C114.308 51.4714 112.693 53.1501 112.643 54.6427ZM124.417 49.6334H124.433C124.842 49.6334 125.167 50.074 125.167 50.65C125.167 51.9926 123.704 54.2018 121.955 55.4074C120.896 56.137 120.18 56.2463 119.679 56.2463C119.113 56.2463 118.003 55.9972 118.059 54.6796C118.105 53.6259 119.331 52.4204 119.848 51.8741C120.04 51.6704 120.376 51.3972 120.275 51.3342C120.226 51.3037 119.991 51.5139 119.714 51.6639C119.483 51.7889 118.946 52.1259 118.18 52.1546C118.107 52.1575 118.033 52.1575 117.959 52.1546C117.507 53.2472 116.515 54.5527 115.41 55.4324C114.515 56.1453 113.766 56.3214 113.134 56.3214C112.335 56.3214 111.086 56.0296 111.075 54.5602C111.063 52.8009 112.733 51.3953 113.91 50.7759C114.699 50.3592 115.982 49.8732 117.108 50.013C117.566 50.0704 118.338 50.2788 118.204 51.313C118.184 51.4558 118.152 51.5969 118.11 51.7351C118.152 51.7398 118.195 51.7444 118.24 51.7444C119.238 51.7722 120.582 50.8889 121.163 50.3407C121.163 50.3407 121.545 50.2259 121.832 50.1731C122.229 50.1 122.57 50.0889 122.591 50.2444C122.612 50.4092 122.244 50.9001 121.901 51.3538C121.467 51.9278 120.128 53.5658 119.651 54.6038C119.411 55.1288 119.273 55.9333 119.829 55.9564C120.408 55.9814 121.09 55.5527 121.574 55.1824C122.7 54.3231 123.807 52.9223 124.009 51.3288C124.078 50.7751 124.041 50.487 124.022 50.2981C123.995 50.0342 124.017 49.6454 124.417 49.6334ZM64.0707 52.6038C64.4378 52.6074 64.8036 52.5628 65.1582 52.4713C66.8726 52.0481 67.6678 51.0908 67.9159 50.4158C68.0716 49.9945 68.014 49.6464 67.6649 49.6334C67.3399 49.6223 66.9188 49.8037 66.5101 50.0592C65.6447 50.599 64.6966 51.5464 64.0707 52.6038ZM84.4197 45.2362C84.6072 45.2001 84.7918 45.1751 84.9245 45.1751C85.0226 45.1751 85.0938 45.189 85.1188 45.2223C85.2168 45.3593 85.0053 45.5908 84.3793 46.489C84.2351 46.6954 83.7659 47.3408 83.237 48.0704C85.2899 47.9825 86.6091 47.9427 87.0611 47.9167C87.989 47.8612 88.2534 47.7157 88.3303 47.7703C88.4313 47.8444 88.2341 48.0778 87.9322 48.2075C87.5495 48.3714 87.1063 48.4203 86.4938 48.462C86.2601 48.4787 85.0053 48.4805 82.9063 48.5296C82.5484 49.0236 82.1958 49.5212 81.8486 50.0222C80.8447 51.4787 79.5668 53.3149 79.5168 54.226C79.5024 54.488 79.4351 55.2509 80.4197 55.2398C81.1351 55.2314 81.9178 54.7223 82.1293 54.5769C83.1611 53.8612 83.6159 53.1788 83.8101 52.764C84.0563 52.238 83.9649 52.0102 84.0486 51.9704C84.2149 51.888 84.3832 52.2408 84.1101 52.8769C83.8553 53.4704 83.1995 54.2537 82.412 54.7722C82.0428 55.0148 81.3466 55.512 80.2197 55.5648C78.9793 55.6231 78.1466 55.0555 78.2322 53.7796C78.2418 53.625 78.2591 53.524 78.2813 53.424C78.3226 53.2398 78.3736 53.1416 78.3197 53.1203C78.2457 53.0926 78.0928 53.299 77.913 53.487C77.4477 53.9644 76.9421 54.4039 76.4015 54.8009C75.7861 55.2453 75.189 55.5416 74.488 55.5101C73.7688 55.4777 73.2216 55.1121 73.287 54.2621C73.4015 52.8038 75.7111 51.2695 75.8159 50.3491C75.864 49.9362 75.6197 49.8842 75.4688 49.8731C75.0832 49.8435 74.6197 50.0862 74.2793 50.2899C73.5543 50.7251 72.5822 51.6 71.6995 52.5287C71.2149 53.0379 70.7611 53.6399 70.1803 54.3899C69.9591 54.6751 69.6755 55.0472 69.3553 55.2407C69.1478 55.3651 68.9117 55.4384 68.6678 55.4538C68.3659 55.4797 67.913 55.4703 67.8659 55.3685C67.8159 55.2592 68.0053 55.0564 68.4091 54.4814C68.7245 54.0314 69.087 53.6204 69.3226 53.2658C69.3957 53.1565 69.5438 52.964 69.4563 52.938C69.3793 52.9158 69.1399 53.1399 68.9918 53.2658C68.6774 53.5343 67.7755 54.2592 67.0668 54.6852C66.7784 54.8574 65.7418 55.574 64.5591 55.5555C63.6515 55.5416 62.5149 55.2129 62.5043 53.8055C62.4918 52.1166 64.1322 50.8371 65.2428 50.2593C66.0245 49.8538 67.4149 49.3658 68.413 49.5278C68.763 49.5852 69.2438 49.7777 69.1678 50.4333C69.0091 51.8101 66.6361 52.4427 65.7101 52.576C65.2946 52.639 64.8738 52.6637 64.4534 52.65C64.1409 53.1796 63.9399 53.7297 63.9226 54.2593C63.9063 54.7751 64.0938 55.2325 64.6861 55.2556C65.3072 55.2806 66.1236 54.9796 67.063 54.3601C69.062 53.0416 70.1418 51.8046 70.9774 50.8083C71.3265 50.3926 71.588 50.0584 71.7015 49.9186C71.7015 49.9186 72.1091 49.8121 72.4005 49.7677C72.7601 49.7121 73.0736 49.6824 73.1322 49.775C73.2111 49.8953 73.0034 50.0454 72.3822 50.9177C72.1851 51.1954 71.9957 51.4315 71.9101 51.5686C71.8543 51.6575 71.6688 51.8805 71.7591 51.924C71.8274 51.9574 72.0861 51.7111 72.3265 51.4981C72.8822 51.0074 73.3668 50.514 74.1053 50.0658C74.6216 49.7528 75.1918 49.5288 75.7543 49.5464C76.7063 49.5741 77.1793 50.1028 77.0313 50.9417C76.8515 51.9649 74.7832 53.7677 74.7063 54.7038C74.6851 54.9723 74.8159 55.0788 74.9976 55.0954C75.3822 55.1306 75.8409 54.8473 76.1813 54.6047C77.087 53.964 78.3216 52.6556 78.7841 52.1362C79.2688 51.2297 79.9159 50.3648 80.2553 49.8685C80.414 49.6351 80.789 49.1436 81.239 48.5667C80.0063 48.5945 78.8899 48.6167 78.2466 48.6278C77.9082 48.6334 77.7755 48.6214 77.787 48.514C77.7966 48.4251 78.2043 48.3157 78.5832 48.2889C79.5788 48.2306 80.575 48.1823 81.5716 48.1436C82.512 46.9491 83.613 45.5899 83.8005 45.3991C83.8005 45.3991 84.0716 45.3028 84.4197 45.2362ZM108.778 41.7186C109.015 41.589 109.272 41.4593 109.406 41.4593C109.445 41.4593 109.473 41.4685 109.488 41.4936C109.589 41.6528 109.32 41.6788 108.828 42.0251C106.761 43.4834 105.917 45.2694 104.137 48.6703C102.57 51.6648 100.377 53.987 96.739 55.3083C94.589 56.0879 92.6553 56.3501 90.9139 56.3186C90.2063 56.3056 86.8226 56.0703 86.7899 53.7055C86.7611 51.6083 89.0399 50.8908 90.2784 50.9158C91.3024 50.9362 91.7207 51.1778 91.9774 51.4214C92.1178 51.5556 92.2274 51.714 92.2755 51.951C92.3284 52.226 92.2053 52.4296 92.0591 52.3629C92.0024 52.3379 92.0351 52.2111 91.9861 52.0518C91.9277 51.8501 91.7973 51.6746 91.6178 51.5564C91.2601 51.3055 90.714 51.2204 90.1159 51.226C89.1005 51.2352 87.1255 51.8648 87.1447 53.7055C87.1649 55.6481 89.9399 55.9666 90.9476 55.9389C92.6591 55.8926 94.2226 55.4704 96.1207 54.3612C98.5659 52.9315 100.423 50.8149 101.844 48.9464C104.13 45.9399 105.449 44.2704 107.016 42.9427C107.9 42.1927 108.474 41.8862 108.778 41.7186ZM140.49 55.5751C140.509 55.5769 140.53 55.5777 140.551 55.5777C140.84 55.5777 141.298 55.3862 142.021 54.7334C144.188 52.7797 145.353 50.9203 145.555 50.6481C145.555 50.6481 145.324 50.3759 144.678 50.3759C144.286 50.3759 143.86 50.4343 143.206 50.7593C141.831 51.4417 140.209 53.1852 140.072 54.6556C140.024 55.1528 140.135 55.539 140.49 55.5751ZM157.74 49.6343C158.049 49.6501 158.11 49.8898 158.067 50.1759C157.461 50.1129 156.701 50.2556 156.025 50.4667C156.218 50.3158 156.411 50.1797 156.602 50.0602C157.011 49.8047 157.386 49.6158 157.741 49.6343H157.74ZM158.067 50.1759C158.092 50.1777 158.116 50.1814 158.14 50.1842C158.497 50.2324 158.996 50.4371 158.919 51.1028C158.757 52.501 156.265 53.1269 155.401 53.2556C154.844 53.339 154.374 53.349 154.108 53.3444C153.787 53.8842 153.58 54.4435 153.563 54.9851C153.547 55.5074 153.775 55.9704 154.342 55.9704C154.965 55.9704 155.709 55.7139 156.654 55.0453C158.544 53.7074 159.532 52.5777 160.386 51.5972C160.671 51.2703 161.269 50.6167 161.405 50.4575C161.405 50.4575 161.8 50.3436 162.091 50.2936C162.548 50.2167 162.772 50.2315 162.817 50.3167C162.888 50.4501 162.56 50.8889 162.028 51.6129C161.701 52.0583 160.092 54.0333 159.977 55.225C159.946 55.549 159.959 55.75 160.229 55.7824C160.583 55.824 161.011 55.5575 161.354 55.3102C162.163 54.7269 163.664 53.0824 164.029 52.6518C164.407 52.2074 164.693 51.8768 164.929 51.5972C165.172 51.3111 165.733 50.6417 165.896 50.4575C165.896 50.4575 166.167 50.3621 166.567 50.3001C166.98 50.2352 167.285 50.2287 167.336 50.3148C167.411 50.4416 167.182 50.7509 166.571 51.5907C166.08 52.2629 164.676 54.0333 164.561 55.225C164.53 55.549 164.568 55.7657 164.792 55.7824C165.112 55.8064 165.462 55.5417 165.798 55.2843C167.2 54.213 168.875 52.3842 169.227 51.9389C169.477 51.599 169.661 51.3464 169.727 51.2556C169.944 50.9593 170.201 50.6407 170.347 50.4657C170.347 50.4657 170.718 50.3547 170.931 50.3186C171.361 50.2454 171.605 50.2408 171.672 50.3297C171.764 50.4547 171.571 50.6667 170.915 51.5723C170.731 51.8241 170.501 52.1204 170.437 52.2075C170.382 52.2815 170.183 52.5111 170.245 52.5648C170.348 52.6564 170.721 52.237 170.879 52.0833C171.468 51.5166 172.349 50.6907 173.257 50.1731C173.494 50.0379 173.97 49.7537 174.614 49.7537C175.178 49.7537 175.335 50.025 175.313 50.2222C175.292 50.4444 175.088 50.7407 174.383 50.8018C173.806 50.8518 173.369 50.8538 172.784 51.1297C171.679 51.6501 170.544 52.6055 169.104 54.4352C168.782 54.8444 168.122 55.6833 167.828 55.8944C167.607 56.0504 167.345 56.1441 167.072 56.1649C166.873 56.1853 166.317 56.1788 166.28 56.0797C166.243 55.9769 166.361 55.7916 166.844 55.1787C167.001 54.9787 167.208 54.7324 167.414 54.4611C167.616 54.1953 167.801 53.9751 167.743 53.9473C167.688 53.9204 167.486 54.1194 167.196 54.4009C166.801 54.7824 166.388 55.1731 165.991 55.4713C165.448 55.8787 164.957 56.2027 164.279 56.2027C163.498 56.2027 163.032 55.7176 163.186 54.7351C163.267 54.2166 163.605 53.8001 163.501 53.7491C163.424 53.7121 163.232 53.9527 163.067 54.1194C162.524 54.6694 161.976 55.1898 161.551 55.5C160.942 55.9444 160.423 56.2027 159.729 56.2027C159.159 56.2027 158.587 55.863 158.587 55.0371C158.587 54.8001 158.661 54.4639 158.777 54.1703C158.902 53.8518 159.095 53.5963 158.998 53.5592C158.934 53.5351 158.731 53.7565 158.654 53.8241C158.249 54.1815 157.3 55.0074 156.544 55.475C156.02 55.799 155.245 56.3001 154.14 56.3001C153.219 56.3001 152.151 55.9722 152.134 54.524C152.131 54.2796 152.202 54.0732 152.15 54.0306C152.095 53.9843 151.87 54.3047 151.721 54.4778C151.443 54.8019 151.144 55.137 150.812 55.4296C150.312 55.8685 149.892 56.2463 149.017 56.2463C148.413 56.2463 147.646 55.8166 147.682 54.6509C147.688 54.4685 147.717 54.2777 147.764 54.0833C147.811 53.8879 147.831 53.7834 147.78 53.7714C147.711 53.7538 147.66 53.8564 147.484 54.0639C147.076 54.5463 146.606 55.0547 146.135 55.4519C145.568 55.9315 145.087 56.2241 144.374 56.2241C143.748 56.2241 143.159 55.8676 143.225 55.0509C143.261 54.7514 143.344 54.4588 143.471 54.1833C143.613 53.8713 143.763 53.6686 143.683 53.6112C143.597 53.5482 143.245 53.9565 143.006 54.1973C142.71 54.4973 142.054 55.1491 141.508 55.5658C141.198 55.8019 140.606 56.2287 139.847 56.2731C138.978 56.324 137.993 55.9861 138.058 54.5574C138.074 54.2296 138.219 53.8464 138.133 53.8214C138.066 53.8028 137.937 53.9436 137.725 54.1306C137.16 54.6288 136.436 55.1963 135.962 55.4898C135.438 55.8139 134.645 56.3018 133.622 56.3018C132.702 56.3018 131.597 55.8805 131.631 54.4972C131.652 53.6546 131.977 52.9667 132.481 52.3908C132.624 52.2269 132.866 52.0232 132.789 52.0047C132.756 51.9964 132.687 52.0231 132.535 52.062C132.173 52.1566 131.796 52.1877 131.423 52.1537C130.976 53.2389 129.948 54.5574 128.801 55.4389C127.891 56.1389 127.128 56.312 126.487 56.312C125.674 56.312 124.404 56.025 124.394 54.5814C124.38 52.8527 126.079 51.4723 127.275 50.864C128.078 50.4547 129.383 49.9769 130.528 50.114C130.993 50.1695 131.778 50.375 131.642 51.3916C131.625 51.5105 131.599 51.6281 131.565 51.7435C131.649 51.7648 131.749 51.7787 131.847 51.7824C132.829 51.8129 133.67 51.3158 134.39 50.9741C134.43 50.9528 134.535 50.9028 134.574 50.8843C135.483 50.4547 136.548 50.1084 137.606 50.188C138.137 50.2269 138.627 50.4038 138.827 50.8232C139.061 51.3112 138.801 51.8399 138.418 51.8825C138.081 51.9195 137.958 51.6064 137.944 51.3398C137.93 51.1037 137.927 50.899 137.898 50.7722C137.847 50.5453 137.787 50.4139 137.499 50.4139C137.214 50.4139 136.868 50.5547 136.448 50.7843C134.984 51.5871 133.26 53.3861 133.207 54.9879C133.191 55.5102 133.362 55.8833 133.917 55.9277C134.417 55.9676 135.234 55.6528 136.146 55.0056C137.715 53.8917 138.497 53.0101 138.91 52.5777C139.472 51.9048 140.168 51.3467 140.957 50.9361C141.717 50.5518 142.856 50.1241 144.268 50.1556C145.333 50.1788 145.729 50.4981 145.729 50.4981C145.88 50.4472 146.248 50.3657 146.49 50.3342C146.869 50.2842 147.225 50.2555 147.282 50.35C147.372 50.4981 147.045 50.8768 146.547 51.6259C146.258 52.0592 144.748 54.0463 144.617 55.237C144.58 55.5629 144.618 55.8491 144.88 55.8491C145.192 55.8491 145.603 55.5204 145.912 55.2686C146.888 54.4723 148.225 52.7186 148.563 52.2686C149.015 51.5001 149.534 50.8001 149.853 50.3519C150.289 49.7499 150.732 49.1528 151.182 48.5611C149.652 48.2092 147.795 47.6519 145.462 46.7686C142.743 45.7408 140.618 45.0231 138.829 44.6481C136.493 44.1592 134.517 44.0204 132.5 44.1038C129.833 44.2149 126.011 45.1491 126.011 47.2028C126.011 47.7417 126.291 48.0862 126.519 48.2843C126.74 48.4769 126.948 48.5092 126.941 48.5907C126.918 48.8481 126.553 48.7 126.245 48.4648C126.048 48.3108 125.891 48.1161 125.784 47.8951C125.677 47.6742 125.624 47.4326 125.627 47.1889C125.643 45.0527 129.257 43.9482 132.597 43.7232C134.63 43.5862 136.704 43.7158 139.009 44.0751C141.341 44.4399 143.838 45.1862 145.83 45.8621C147.348 46.3769 149.323 47.2176 151.723 47.85C152.295 47.0953 152.874 46.3454 153.459 45.6001C153.459 45.6001 153.689 45.5121 154.008 45.4417C154.339 45.3695 154.76 45.3352 154.812 45.4297C154.878 45.5519 154.685 45.8075 154.033 46.7149C153.809 47.0251 153.456 47.539 153.035 48.1621C154.528 48.4788 156.166 48.6917 157.942 48.6917C163.621 48.6917 166.937 46.6639 167.363 46.4009C167.695 46.1972 169.865 44.8315 169.865 43.0964C169.865 41.3787 168.196 40.5639 165.967 40.5639C163.849 40.5639 160.974 41.2148 159.549 43.0825C159.294 43.4177 159.2 43.7028 159.171 43.9177C159.12 44.288 159.25 44.4204 159.137 44.4806C158.988 44.5593 158.851 44.2806 158.897 43.9028C158.927 43.6501 159.033 43.3843 159.204 43.101C160.221 41.4084 163.281 39.9732 165.991 39.9732C170.202 39.9732 170.596 42.0936 170.548 42.8186C170.507 43.4547 170.254 44.9732 167.502 46.6501C164.676 48.3723 160.479 49.1427 157.631 49.1427C156.297 49.1427 154.848 49.2389 152.574 48.8444L151.459 50.5075C150.38 52.1204 149.297 54.0917 149.169 55.1528C149.13 55.4778 149.182 55.8177 149.476 55.8538C149.796 55.8927 150.294 55.5334 150.608 55.2519C151.27 54.6658 152 53.7658 152.44 53.1964C153.082 51.9917 154.04 51.3657 154.884 50.9268C155.188 50.7694 155.589 50.6028 156.025 50.4667C155.273 51.0627 154.641 51.788 154.163 52.6056H154.223C154.411 52.6056 154.733 52.5982 155.276 52.4667C156.891 52.0777 157.826 51.0538 158.013 50.4167C158.037 50.3352 158.056 50.2537 158.068 50.1759H158.067ZM125.961 54.6427C125.945 55.1306 126.166 55.5777 126.704 55.5777C127.185 55.5777 127.824 55.3259 128.401 54.837C129.665 53.7629 130.53 52.1092 130.642 51.2537C130.741 50.4981 130.427 50.3954 130.159 50.3778C129.84 50.3565 129.366 50.539 129.023 50.7232C127.629 51.4714 126.01 53.1501 125.961 54.6427ZM48.4515 60.7694C48.3265 61.3102 48.4543 61.6694 48.7043 61.899C48.2909 61.6064 48.0986 61.1528 48.2015 60.5917C48.4457 59.2666 50.0611 58.4001 51.2995 57.938C52.4822 57.4973 54.1284 57.2037 55.5236 57.1583C55.8947 57.1453 56.4563 57.126 56.8322 57.139C57.9091 55.8065 58.6322 54.6676 58.964 54.1833C59.2428 53.7759 59.5697 53.3501 59.3774 53.3538C59.2966 53.3556 59.063 53.5704 58.8072 53.8158C58.4861 54.1232 57.8053 54.7565 57.2841 55.1464C56.9707 55.3788 56.3707 55.7898 55.5851 55.8333C54.6861 55.8833 53.6668 55.551 53.7091 54.1621C53.718 53.9336 53.7581 53.7073 53.8284 53.489C53.8832 53.313 54.0284 53.0879 53.9534 53.0583C53.8909 53.0333 53.4918 53.2399 53.0976 53.3964C52.6707 53.5667 51.9005 53.8186 51.1168 53.9028L50.8409 54.4231C50.6313 54.8213 50.4505 55.1741 50.0716 55.4603C49.7284 55.7195 49.188 55.8101 48.5245 55.8676C47.8591 55.925 47.4188 55.9371 47.4053 55.7714C47.3947 55.6491 47.5976 55.3056 48.038 54.6269C48.2438 54.3102 48.4572 53.9667 48.5188 53.8186C46.9736 53.5778 45.1072 52.7685 43.9101 51.8277C39.2447 56.1231 34.0524 56.2851 32.2226 56.2463C29.7611 56.1944 25.8639 55.3444 25.6918 51.8018C25.4764 47.3537 30.4486 44.6158 34.5062 44.5769C37.787 44.5454 39.7563 46.1352 39.7447 48.326C39.7322 50.8899 37.0476 53.4149 33.4207 53.4186C33.0649 53.4186 32.3716 53.3315 32.0014 53.0704C31.7207 52.8732 31.6264 52.7129 31.5524 52.4814C31.488 52.2777 31.5466 52.0927 31.6332 52.0769C31.7755 52.0528 31.7649 52.238 31.8236 52.3778C31.9046 52.58 32.0619 52.7453 32.2639 52.8407C32.4947 52.9648 32.9014 53.0889 33.437 53.0861C37.3707 53.0574 39.438 50.0601 39.3322 48.3787C39.2332 46.799 38.1495 45.376 34.4736 45.4519C30.2851 45.538 26.137 48.1602 26.1514 51.813C26.1572 53.1464 27.113 55.8435 32.3707 55.5805C36.6822 55.3639 40.4505 52.9334 42.8582 50.9454C41.4736 49.5954 40.5043 47.8436 40.5043 45.6732C40.5043 43.9241 41.5216 41.2037 44.5957 41.0713C46.9284 40.9704 48.7178 42.7704 49.513 45.051C51.9543 42.9195 54.5207 41.0658 57.4072 39.9787C58.4957 39.5695 59.3563 39.3546 60.2341 39.2519C60.3534 39.2373 60.4735 39.2295 60.5938 39.2287H60.5966C60.4851 39.2287 60.364 39.238 60.263 39.25C59.9322 39.2889 58.9409 39.4454 57.4774 40.0102C54.788 41.0472 52.462 42.6464 49.5851 45.476C49.6265 45.6362 49.664 45.8001 49.6966 45.9677L49.7486 45.9167C49.9341 46.639 50.0034 47.4046 49.9736 48.1814C49.9015 50.0676 49.5611 51.576 49.2236 52.5917C49.2297 52.594 49.2362 52.5953 49.2428 52.5954C49.2966 52.5954 49.3466 52.5046 49.5313 52.2222C50.8745 50.0038 52.5466 47.4278 53.8534 45.7667C56.6303 42.239 58.7716 40.6759 60.2476 39.8269C60.5995 39.625 60.9784 39.4343 60.9351 39.3195C60.9111 39.2546 60.7784 39.2315 60.6216 39.2287C60.9226 39.2324 61.214 39.2972 61.2813 39.5204C61.3784 39.8408 60.9447 40.0352 60.5053 40.3556C59.0255 41.4334 57.8034 42.5454 56.513 44.3501C55.0168 46.4408 53.1957 49.6203 51.2697 53.5574C52.587 53.3453 53.7822 52.8351 54.464 52.337C55.089 51.5592 55.9765 50.9658 56.6178 50.6427C57.3024 50.2982 58.4707 49.8991 59.9236 49.9251C60.862 49.9408 61.3793 50.1685 61.5236 50.2222C61.5236 50.2222 62.0216 50.1009 62.2755 50.0611C62.6755 50 63.0063 49.9815 63.0659 50.0723C63.162 50.2158 62.9505 50.4241 62.3101 51.313C61.2841 52.7371 60.1236 54.974 58.3236 57.2444C59.8101 57.3926 61.3678 57.5547 65.5505 58.5445C69.4236 59.4612 71.0784 59.5453 72.5274 59.4083C74.3466 59.237 75.3601 58.6232 75.8909 58.1084C76.3486 57.664 76.3928 57.388 76.5015 57.3843C76.7524 57.3769 76.5245 57.876 76.114 58.2871C75.3466 59.0538 74.1255 59.5278 72.9178 59.7612C71.1207 60.1075 68.6486 60.1575 65.1995 59.3778C62.7716 58.8288 60.1611 57.9584 57.9534 57.7001C57.1486 58.6538 55.987 59.7676 55.0265 60.4314C53.4928 61.4935 51.6332 62.2556 50.0611 62.2556L49.962 62.2547C51.5774 62.2001 53.5813 60.5787 54.3726 59.837C55.036 59.2099 55.6559 58.5414 56.2284 57.8361C55.8996 57.8107 55.5697 57.8014 55.2399 57.8083C53.6755 57.8472 52.2265 58.1055 50.8611 58.649C49.4611 59.2064 48.6102 60.0796 48.4515 60.7694ZM49.9572 62.2556C49.9268 62.2564 49.8963 62.2567 49.8659 62.2565C49.4505 62.2565 48.9947 62.1657 48.7043 61.899C49.012 62.1157 49.4399 62.2408 49.9611 62.2556H49.9572ZM55.1716 55.5732C55.2033 55.5766 55.235 55.578 55.2668 55.5777C55.6322 55.5777 56.1736 55.3704 56.9726 54.7278C59.5293 52.6704 60.6765 50.9592 60.9274 50.6259C60.9274 50.6259 60.5245 50.3908 59.8524 50.3778C59.4678 50.3704 58.9813 50.3833 58.187 50.725C56.6216 51.399 54.7909 53.1343 54.6755 54.6565C54.638 55.1547 54.787 55.5325 55.1716 55.5732ZM44.4861 51.3629C45.7813 52.4314 47.6332 53.15 48.939 53.3398C49.0293 53.1324 49.1255 52.8824 49.2216 52.5926C49.2125 52.5891 49.2038 52.5849 49.1957 52.5797C49.1572 52.5556 49.2409 52.3185 49.3274 51.9657C49.5601 51.0176 49.837 49.7685 49.8678 48.0509C49.8803 47.3639 49.8255 46.6435 49.6947 45.9685C48.5351 47.1046 46.8534 49.0731 45.2668 50.6222C45.0104 50.8728 44.7501 51.1197 44.4861 51.3629ZM41.3543 45.4315C41.3063 47.6278 42.0188 49.187 43.0745 50.3759C43.3995 50.1407 43.737 49.8592 44.0284 49.6148C45.3101 48.5426 47.0765 46.9778 49.1861 45.1612C48.4034 42.9788 46.6024 41.3065 44.5688 41.4704C42.6688 41.6232 41.4015 43.3751 41.3543 45.4315ZM91.6803 41.1667C92.4101 39.7546 94.9957 37.7435 98.6447 37.7435C98.7591 37.7435 98.8745 37.7454 98.9909 37.75C101.01 37.8195 102.351 38.5602 103.024 39.6685C102.725 39.688 102.431 39.7148 102.143 39.7454C102.195 39.8408 102.241 39.9408 102.281 40.0445C98.7986 40.4195 95.2476 41.6575 92.6716 43.6519C91.5466 44.5232 90.3063 45.8612 90.2716 47.6334C90.2466 48.9621 91.3409 50.0186 93.2149 50.0186C98.0659 50.0186 102.061 45.3101 102.472 41.8342C102.552 41.1491 102.481 40.5509 102.281 40.0445C102.584 40.0121 102.885 39.9861 103.185 39.9667C103.137 39.8648 103.083 39.7653 103.024 39.6685C103.806 39.6161 104.59 39.6043 105.373 39.6334C112.344 39.8889 112.712 43.5917 112.634 44.7703C112.448 47.6166 109.125 49.6703 106.451 49.3037C105.828 49.2185 105.275 48.9027 105.108 48.5C105.04 48.3503 105.006 48.1884 105.007 48.025C105.009 47.8722 105.089 47.5092 105.252 47.5481C105.409 47.5851 105.287 47.7722 105.297 47.9694C105.302 48.1177 105.314 48.2445 105.422 48.4167C105.658 48.7954 106.163 48.9149 106.633 48.9214C109.482 48.9584 111.098 46.3084 111.249 44.739C111.61 40.9621 107.98 40.0648 105.374 39.9445C104.644 39.9113 103.913 39.9184 103.184 39.9658C103.464 40.5537 103.575 41.2278 103.52 41.9501C103.305 44.6964 101.163 47.5927 98.1236 49.1241C96.0909 50.1473 94.6332 50.3787 93.2899 50.375C92.2822 50.3722 89.8784 49.9564 89.9236 47.6092C89.9639 45.4639 91.7841 43.9519 92.4889 43.3834C93.7582 42.3621 97.1659 40.2787 102.142 39.7445C101.599 38.738 100.475 38.1611 98.9851 38.0713C95.9245 37.8871 93.0572 39.4241 92.0303 41.225C91.8466 41.5473 91.7716 41.7528 91.713 42.0547C91.6784 42.2204 91.6652 42.3896 91.6736 42.5584C91.6803 42.7445 91.7101 42.8815 91.5995 42.9269C91.4716 42.9788 91.3784 42.8575 91.3495 42.5936C91.3337 42.4448 91.3353 42.2948 91.3543 42.1464C91.4014 41.7714 91.5274 41.4639 91.6803 41.1667Z" fill="black"/>
</svg>
