<svg width="200" height="100" viewBox="0 0 200 100" fill="none" xmlns="http://www.w3.org/2000/svg">
<path d="M28.905 52.0411C28.905 49.5587 29.6498 47.5451 31.1392 45.9729C32.6287 44.4007 34.5871 43.6008 37.0696 43.6008C38.366 43.6008 39.4693 43.7938 40.4347 44.18C41.7311 44.7317 42.3655 45.5591 42.3655 46.6349C42.3655 47.1865 42.1724 47.683 41.8138 48.0692C41.4277 48.4553 40.9863 48.6484 40.4071 48.6484C40.0209 48.6484 39.552 48.5381 38.9728 48.2899C38.366 48.0416 37.7591 47.9313 37.0971 47.9313C36.0214 47.9313 35.1939 48.345 34.6147 49.1725C34.0906 49.9172 33.8148 50.8275 33.8148 51.9584C33.8148 53.1169 34.0906 54.0547 34.6423 54.7718C35.2767 55.5442 36.1317 55.9303 37.2902 55.9303C37.9522 55.9303 38.559 55.82 39.1383 55.5717C39.7175 55.3235 40.1864 55.2132 40.545 55.2132C41.0967 55.2132 41.538 55.4062 41.869 55.82C42.2 56.2061 42.3931 56.7026 42.3931 57.2819C42.3931 58.2473 41.7311 59.0472 40.4071 59.7092C39.4417 60.1781 38.2556 60.4263 36.8213 60.4263C34.4492 60.4263 32.5184 59.6264 31.0841 57.999C29.5946 56.4268 28.905 54.4408 28.905 52.0411Z" fill="black"/>
<path d="M48.1027 45.2557C48.9854 44.3179 50.3369 43.849 52.1298 43.849C55.9638 43.849 57.8947 45.8901 57.8947 50V56.813C57.8947 59.1299 57.0947 60.2884 55.5225 60.2884C53.9503 60.2884 53.1504 59.1299 53.1504 56.8405V51.4619C53.1504 50.3034 53.0125 49.4759 52.7366 48.9794C52.3781 48.2623 51.6609 47.9313 50.6128 47.9313C48.9578 47.9313 48.1027 49.0898 48.1027 51.4067V56.8405C48.1027 59.1575 47.3028 60.2884 45.7306 60.2884C44.1308 60.2884 43.3033 59.1299 43.3033 56.8405V40.5666C43.3033 38.2497 44.1032 37.1188 45.7306 37.1188C47.3304 37.1188 48.1027 38.2773 48.1027 40.5666V45.2557Z" fill="black"/>
<path d="M63.3285 53.3651C63.4388 54.2753 63.7974 54.9925 64.4594 55.4614C65.1214 55.9579 65.9213 56.1786 66.8867 56.1786C67.6866 56.1786 68.652 55.9303 69.7829 55.4062C70.9138 54.8822 71.6033 54.6339 71.8792 54.6339C73.1204 54.6339 73.7548 55.2407 73.7548 56.482C73.7548 56.9509 73.5893 57.4198 73.2307 57.8887C72.5963 58.7438 71.6033 59.4058 70.2518 59.8471C69.0933 60.2332 67.9072 60.4263 66.6384 60.4263C64.2939 60.4263 62.3355 59.6264 60.7909 57.999C59.2186 56.3992 58.4463 54.3857 58.4463 52.0411C58.4463 49.6966 59.191 47.683 60.6805 46.0281C62.17 44.3731 64.0732 43.5456 66.4178 43.5456C67.5762 43.5456 68.6244 43.7663 69.5622 44.18C70.9138 44.8144 72.0171 45.7246 72.8722 46.9659C73.7272 48.2071 74.1686 49.5311 74.1686 50.9654C74.1686 51.7377 73.8927 52.3445 73.3135 52.7583C72.817 53.1444 72.1826 53.3099 71.3827 53.3099L63.3285 53.3651ZM63.2733 50.2482H69.507C69.4519 49.4207 69.1209 48.7588 68.5692 48.2347C68.0176 47.7106 67.3004 47.4348 66.4729 47.4348C65.6454 47.4348 64.9283 47.683 64.3766 48.2071C63.7974 48.7312 63.4112 49.4207 63.2733 50.2482Z" fill="black"/>
<path d="M75.0512 56.813V47.2693C75.0512 44.9799 75.8235 43.8214 77.3682 43.8214C78.3612 43.8214 79.1335 44.3179 79.7127 45.3109C80.5954 44.3179 81.8642 43.8214 83.4916 43.8214C85.5603 43.8214 87.1325 44.5386 88.2082 45.9729C89.5046 44.5386 91.1045 43.8214 92.9801 43.8214C96.5659 43.8214 98.3312 45.8626 98.3312 49.9724V56.7854C98.3312 59.1023 97.5588 60.2608 95.959 60.2608C94.4144 60.2608 93.6697 59.1023 93.6697 56.813V51.4619C93.6697 49.0898 92.9249 47.9037 91.463 47.9037C89.8632 47.9037 89.0357 49.0622 89.0357 51.3791V56.813C89.0357 59.1299 88.2634 60.2608 86.7188 60.2608C85.1741 60.2608 84.4018 59.1023 84.4018 56.813V51.4619C84.4018 49.0898 83.6847 47.9037 82.2228 47.9037C80.5954 47.9037 79.7679 49.0622 79.7679 51.3791V56.813C79.7679 59.1299 78.9956 60.2608 77.4509 60.2608C75.8511 60.2884 75.0512 59.1299 75.0512 56.813Z" fill="black"/>
<path d="M99.5172 39.8219C99.5172 39.0496 99.7931 38.4152 100.317 37.8911C100.841 37.367 101.503 37.0912 102.276 37.0912C103.048 37.0912 103.682 37.367 104.206 37.8911C104.73 38.4152 104.979 39.0496 104.979 39.8219C104.979 40.5942 104.73 41.2286 104.206 41.7527C103.682 42.2768 103.048 42.5526 102.276 42.5526C101.503 42.5526 100.841 42.3044 100.317 41.7803C99.7931 41.2562 99.5172 40.6218 99.5172 39.8219ZM104.62 56.813C104.62 59.1299 103.848 60.2884 102.276 60.2884C100.703 60.2884 99.9034 59.1299 99.9034 56.813V47.2693C99.9034 44.9799 100.703 43.8214 102.276 43.8214C103.848 43.8214 104.62 44.9799 104.62 47.2693V56.813Z" fill="black"/>
<path d="M111.488 60.4815C108.84 60.4815 107.047 59.7643 106.054 58.33C105.751 57.8887 105.613 57.4474 105.613 56.9785C105.613 55.5442 106.358 54.827 107.847 54.827C108.289 54.827 108.868 55.0477 109.64 55.5442C110.412 56.0131 111.13 56.2613 111.819 56.2613C112.702 56.2613 113.143 55.9303 113.143 55.2959C113.143 54.8822 112.536 54.4133 111.295 53.8616C109.585 53.0893 108.454 52.51 107.902 52.0687C106.661 51.1585 106.054 50.0276 106.054 48.7036C106.054 47.1314 106.661 45.8901 107.875 44.9247C109.006 44.0421 110.385 43.5732 111.985 43.5732C112.978 43.5732 113.916 43.7387 114.826 44.0421C115.901 44.4282 116.674 44.9523 117.143 45.6419C117.419 46.0556 117.556 46.4694 117.556 46.8831C117.556 47.4348 117.363 47.9313 117.005 48.3174C116.646 48.7036 116.177 48.8967 115.598 48.8967C115.184 48.8967 114.577 48.7036 113.75 48.3174C112.923 47.9313 112.288 47.7382 111.819 47.7382C111.102 47.7382 110.743 48.014 110.743 48.5657C110.743 49.007 111.047 49.338 111.654 49.5587C112.978 50.0552 113.916 50.4689 114.495 50.7171C115.598 51.2688 116.398 51.848 116.977 52.4549C117.612 53.172 117.943 54.0547 117.943 55.1304C117.943 56.7854 117.281 58.1094 115.929 59.1299C114.633 60.0126 113.171 60.4815 111.488 60.4815Z" fill="black"/>
<path d="M121.087 48.4278C119.184 48.4278 118.246 47.7382 118.246 46.3866C118.246 45.0627 119.184 44.3731 121.087 44.2903C121.087 42.3871 121.115 41.2286 121.197 40.8425C121.501 39.4633 122.246 38.7462 123.459 38.7462C124.645 38.7462 125.39 39.4357 125.693 40.8425C125.776 41.2286 125.804 42.3871 125.804 44.2903C128.093 44.2903 129.224 45.0075 129.224 46.3866C129.224 47.7658 128.093 48.4278 125.804 48.4278V56.813C125.804 59.1299 125.031 60.2608 123.459 60.2608C121.887 60.2608 121.087 59.1023 121.087 56.813V48.4278Z" fill="black"/>
<path d="M145.277 51.9309H139.071L145.277 41.8906V51.9309Z" fill="black"/>
<path fill-rule="evenodd" clip-rule="evenodd" d="M150.16 29.0646C161.717 29.0646 171.095 38.4429 171.095 50.0001C171.095 61.5572 161.717 70.9353 150.16 70.9354C138.602 70.9354 129.224 61.5573 129.224 50.0001C129.224 38.4429 138.602 29.0646 150.16 29.0646ZM146.077 36.2087C144.312 36.2087 142.822 37.1464 141.609 39.0496L135.513 48.7589C134.299 50.6896 133.692 52.3446 133.692 53.7513C133.693 54.7718 134.051 55.5718 134.768 56.151C135.485 56.7302 136.396 57.006 137.444 57.006H145.277V59.847C145.277 62.0812 146.132 63.2121 147.842 63.2121C149.801 63.2121 150.766 62.1365 150.766 60.0126V57.006C152.697 57.006 153.662 56.1785 153.69 54.4961C153.69 52.7859 152.725 51.9309 150.794 51.9309V42.2769C150.794 40.5667 150.435 39.1599 149.773 38.1117C148.946 36.843 147.705 36.2087 146.077 36.2087ZM164.172 41.5046C163.206 41.5046 162.737 42.1665 162.737 43.5456V48.3451C162.737 50.5793 161.882 51.7103 160.172 51.7103C158.462 51.7103 157.607 50.5793 157.607 48.3451V43.5456C157.607 42.1941 157.138 41.5046 156.173 41.5046C155.207 41.5046 154.738 42.1665 154.738 43.5456V48.6762C154.738 50.4414 155.18 51.848 156.062 52.8686C157.027 53.9167 158.379 54.4686 160.144 54.4686C161.91 54.4686 163.289 53.9443 164.227 52.8686C165.137 51.848 165.606 50.4689 165.606 48.6762V43.5456C165.606 42.1941 165.137 41.5046 164.172 41.5046Z" fill="black"/>
</svg>
