<svg width="200" height="100" viewBox="0 0 200 100" fill="none" xmlns="http://www.w3.org/2000/svg">
<path d="M59.2986 48.0993V57.5199H57.4863V48.0993H56.0729V46.605H57.4863V45.8287C57.4863 44.6072 57.8012 43.7143 58.4333 43.1501C59.0631 42.586 60.0777 42.3039 61.4725 42.3039V43.8169C60.6748 43.8169 60.115 43.9731 59.7884 44.2855C59.4619 44.5979 59.301 45.113 59.301 45.8287V46.605H61.5914V48.0993H59.2986Z" fill="currentColor"/>
<path d="M65.8807 46.9245C66.4732 46.5794 67.1916 46.4069 68.0428 46.4069V48.2789H67.5647C65.5332 48.2789 64.5163 49.3816 64.5163 51.5846V57.5199H62.704V46.6074H64.5163V48.3791C64.8358 47.7567 65.2907 47.2718 65.8807 46.9245Z" fill="currentColor"/>
<path d="M79.0428 52.7387H70.3146C70.3801 53.8134 70.7487 54.655 71.4204 55.2588C72.092 55.8626 72.9061 56.1657 73.8623 56.1657C74.6461 56.1657 75.2993 55.9838 75.824 55.6178C76.3487 55.2542 76.7173 54.7646 76.9298 54.1538H78.8818C78.5902 55.2029 78.0047 56.0561 77.1277 56.7135C76.2506 57.3709 75.1616 57.6996 73.8602 57.6996C72.8243 57.6996 71.8984 57.4665 71.0799 57.0026C70.2636 56.5387 69.6218 55.8766 69.1556 55.021C68.6916 54.1631 68.458 53.1723 68.458 52.044C68.458 50.9157 68.6846 49.9273 69.1367 49.0764C69.5893 48.2255 70.224 47.5727 71.0404 47.1158C71.8567 46.6565 72.7966 46.4281 73.8602 46.4281C74.9237 46.4281 75.8121 46.6542 76.61 47.1042C77.4079 47.5564 78.021 48.1765 78.4525 48.9668C78.8839 49.7571 79.1013 50.65 79.1013 51.6454C79.1013 51.9904 79.0802 52.3564 79.0406 52.7411L79.0428 52.7387ZM76.771 49.482C76.4653 48.9854 76.0501 48.6054 75.5254 48.3467C75.0006 48.0879 74.4201 47.9574 73.7832 47.9574C72.8666 47.9574 72.0849 48.2488 71.4415 48.8339C70.7975 49.4191 70.4289 50.228 70.3357 51.263H77.2307C77.2307 50.573 77.0767 49.9786 76.771 49.4797V49.482Z" fill="currentColor"/>
<path d="M90.3994 52.7387H81.6718C81.7368 53.8134 82.1054 54.655 82.777 55.2588C83.4486 55.8626 84.2628 56.1657 85.219 56.1657C86.0028 56.1657 86.656 55.9838 87.1807 55.6178C87.7054 55.2542 88.074 54.7646 88.2865 54.1538H90.2384C89.9468 55.2029 89.3614 56.0561 88.4849 56.7135C87.6078 57.3709 86.5183 57.6996 85.2168 57.6996C84.1815 57.6996 83.2551 57.4665 82.4366 57.0026C81.6203 56.5387 80.979 55.8766 80.5123 55.021C80.0483 54.1631 79.8147 53.1723 79.8147 52.044C79.8147 50.9157 80.0412 49.9273 80.4939 49.0764C80.9459 48.2255 81.5807 47.5727 82.397 47.1158C83.2134 46.6565 84.1533 46.4281 85.2168 46.4281C86.2803 46.4281 87.1693 46.6542 87.9667 47.1042C88.7646 47.5564 89.3782 48.1765 89.8097 48.9668C90.2411 49.7571 90.458 50.65 90.458 51.6454C90.458 51.9904 90.4368 52.3564 90.3972 52.7411L90.3994 52.7387ZM88.1277 49.482C87.8219 48.9854 87.4073 48.6054 86.882 48.3467C86.3573 48.0879 85.7767 47.9574 85.1398 47.9574C84.2232 47.9574 83.4421 48.2488 82.7981 48.8339C82.1542 49.4191 81.7856 50.228 81.6923 51.263H88.5873C88.5873 50.573 88.4334 49.9786 88.1277 49.4797V49.482Z" fill="currentColor"/>
<path d="M91.8548 49.0853C92.3075 48.2415 92.9281 47.5887 93.7184 47.1248C94.5093 46.6609 95.3956 46.4277 96.3799 46.4277C97.2288 46.4277 98.0197 46.6236 98.7498 47.0152C99.48 47.4068 100.037 47.9221 100.424 48.5585V42.784H102.257V57.5221H100.424V55.4706C100.065 56.121 99.5331 56.6549 98.8311 57.0745C98.127 57.4918 97.3036 57.7016 96.361 57.7016C95.4189 57.7016 94.5115 57.4615 93.7212 56.9836C92.9303 56.5057 92.3096 55.8343 91.857 54.9718C91.4049 54.1092 91.1784 53.1277 91.1784 52.0251C91.1784 50.9224 91.4049 49.9316 91.857 49.0877L91.8548 49.0853ZM99.925 49.892C99.5938 49.2812 99.1439 48.8126 98.5796 48.4886C98.0148 48.1622 97.3947 48.0013 96.716 48.0013C96.0368 48.0013 95.421 48.1599 94.8638 48.4793C94.3066 48.7986 93.861 49.2625 93.5298 49.8733C93.1986 50.4841 93.0327 51.2021 93.0327 52.0251C93.0327 52.848 93.1986 53.587 93.5298 54.2047C93.861 54.8225 94.3066 55.2935 94.8638 55.6175C95.421 55.9439 96.0395 56.1047 96.716 56.1047C97.392 56.1047 98.0148 55.9415 98.5796 55.6175C99.1439 55.2935 99.5916 54.8202 99.925 54.2047C100.259 53.5893 100.424 52.8666 100.424 52.0437C100.424 51.2208 100.259 50.5051 99.925 49.892Z" fill="currentColor"/>
<path d="M106.312 57.0022C105.481 56.5384 104.831 55.8763 104.359 55.0207C103.888 54.1628 103.653 53.1721 103.653 52.0437C103.653 50.9154 103.895 49.9433 104.38 49.0854C104.865 48.2298 105.526 47.5724 106.363 47.1132C107.2 46.6539 108.136 46.4255 109.171 46.4255C110.207 46.4255 111.145 46.6539 111.981 47.1132C112.819 47.5701 113.479 48.2251 113.964 49.0737C114.449 49.9223 114.692 50.9131 114.692 52.0414C114.692 53.1697 114.442 54.1628 113.945 55.0184C113.449 55.874 112.772 56.536 111.923 56.9999C111.072 57.4639 110.13 57.697 109.094 57.697C108.059 57.697 107.144 57.4639 106.314 56.9999L106.312 57.0022ZM110.925 55.6478C111.496 55.3424 111.958 54.8855 112.31 54.2724C112.663 53.6616 112.838 52.9179 112.838 52.0414C112.838 51.1648 112.665 50.4212 112.32 49.8104C111.974 49.1996 111.522 48.745 110.965 48.4466C110.407 48.1482 109.803 47.999 109.152 47.999C108.501 47.999 107.879 48.1482 107.328 48.4466C106.776 48.745 106.335 49.2019 106.004 49.8104C105.672 50.4188 105.507 51.1648 105.507 52.0414C105.507 52.9179 105.67 53.6826 105.994 54.291C106.321 54.9018 106.754 55.3564 107.298 55.6548C107.842 55.9532 108.441 56.1024 109.092 56.1024C109.743 56.1024 110.354 55.9485 110.925 55.6431V55.6478Z" fill="currentColor"/>
<path d="M131.488 46.934C132.152 47.286 132.677 47.8129 133.062 48.5169C133.447 49.221 133.64 50.0765 133.64 51.0859V57.5178H131.847V51.3447C131.847 50.256 131.579 49.4237 131.04 48.8456C130.501 48.2675 129.773 47.9784 128.857 47.9784C127.94 47.9784 127.163 48.2815 126.606 48.8853C126.048 49.489 125.769 50.3632 125.769 51.5032V57.5178H123.975V51.3447C123.975 50.256 123.707 49.4237 123.168 48.8456C122.629 48.2675 121.902 47.9784 120.985 47.9784C120.068 47.9784 119.292 48.2815 118.734 48.8853C118.177 49.489 117.896 50.3632 117.896 51.5032V57.5178H116.084V46.6053H117.896V48.1788C118.256 47.6077 118.737 47.1694 119.34 46.864C119.944 46.5586 120.612 46.4048 121.344 46.4048C122.26 46.4048 123.07 46.61 123.774 47.0226C124.479 47.4352 125.004 48.039 125.349 48.8339C125.654 48.0646 126.158 47.4655 126.863 47.0412C127.567 46.617 128.35 46.4048 129.213 46.4048C130.076 46.4048 130.821 46.5819 131.485 46.9317L131.488 46.934Z" fill="currentColor"/>
<path d="M139.059 52.7292C140.015 51.8597 140.822 50.9505 141.48 50.0017C142.138 49.0529 142.467 48.1204 142.467 47.2042C142.467 46.3417 142.256 45.6609 141.839 45.162C141.42 44.6631 140.745 44.416 139.817 44.416C138.889 44.416 138.212 44.6981 137.716 45.2623C137.216 45.8264 136.948 46.5794 136.908 47.5236H135.154C135.208 46.0363 135.658 44.8893 136.51 44.078C137.361 43.2667 138.455 42.8634 139.798 42.8634C141.142 42.8634 142.252 43.2411 143.057 43.9987C143.861 44.7564 144.263 45.7985 144.263 47.1249C144.263 48.2276 143.934 49.3 143.276 50.342C142.618 51.3841 141.872 52.3003 141.035 53.0905C140.197 53.8809 139.129 54.7994 137.825 55.8484H144.68V57.3614H135.096V56.0676C136.782 54.7131 138.105 53.6011 139.061 52.7315L139.059 52.7292Z" fill="currentColor"/>
<path d="M153.725 46.9333C154.39 47.2853 154.91 47.8122 155.291 48.5162C155.669 49.2202 155.859 50.0758 155.859 51.0853V57.5171H154.066V51.344C154.066 50.2553 153.793 49.4231 153.249 48.8449C152.704 48.2668 151.962 47.9777 151.018 47.9777C150.073 47.9777 149.301 48.2761 148.736 48.8729C148.172 49.4697 147.89 50.3392 147.89 51.4816V57.5171H146.077V42.7814H147.89V48.1596C148.249 47.6024 148.743 47.1711 149.375 46.8657C150.005 46.5603 150.714 46.4064 151.498 46.4064C152.321 46.4064 153.066 46.5836 153.73 46.9333H153.725Z" fill="currentColor"/>
<path d="M167.732 52.7387H159.004C159.069 53.8134 159.437 54.655 160.11 55.2588C160.781 55.8626 161.595 56.1657 162.552 56.1657C163.335 56.1657 163.988 55.9838 164.513 55.6178C165.038 55.2542 165.407 54.7646 165.619 54.1538H167.571C167.279 55.2029 166.694 56.0561 165.817 56.7135C164.94 57.3709 163.85 57.6996 162.549 57.6996C161.514 57.6996 160.588 57.4665 159.769 57.0026C158.952 56.5387 158.311 55.8766 157.844 55.021C157.38 54.1631 157.147 53.1723 157.147 52.044C157.147 50.9157 157.373 49.9273 157.826 49.0764C158.279 48.2255 158.913 47.5727 159.729 47.1158C160.545 46.6565 161.485 46.4281 162.549 46.4281C163.613 46.4281 164.501 46.6542 165.299 47.1042C166.097 47.5564 166.71 48.1765 167.142 48.9668C167.573 49.7571 167.79 50.65 167.79 51.6454C167.79 51.9904 167.769 52.3564 167.729 52.7411L167.732 52.7387ZM165.46 49.482C165.155 48.9854 164.739 48.6054 164.215 48.3467C163.69 48.0879 163.109 47.9574 162.472 47.9574C161.555 47.9574 160.774 48.2488 160.13 48.8339C159.487 49.4191 159.118 50.228 159.025 51.263H165.919C165.919 50.573 165.765 49.9786 165.46 49.4797V49.482Z" fill="currentColor"/>
<path d="M169.187 49.0857C169.64 48.2418 170.26 47.589 171.051 47.1251C171.841 46.6612 172.721 46.4281 173.691 46.4281C174.662 46.4281 175.478 46.6332 176.182 47.0458C176.887 47.4585 177.412 47.976 177.757 48.5985V46.6076H179.59V57.5201H177.757V55.4896C177.397 56.126 176.863 56.6552 176.152 57.0725C175.441 57.4898 174.615 57.6996 173.672 57.6996C172.73 57.6996 171.825 57.4595 171.041 56.9816C170.258 56.5037 169.64 55.8323 169.19 54.9697C168.737 54.1072 168.511 53.1257 168.511 52.0231C168.511 50.9204 168.737 49.9296 169.19 49.0857H169.187ZM177.258 49.8923C176.926 49.2815 176.476 48.8129 175.912 48.4889C175.347 48.1625 174.727 48.0016 174.048 48.0016C173.369 48.0016 172.754 48.1602 172.196 48.4796C171.639 48.799 171.193 49.2629 170.862 49.8736C170.531 50.4844 170.365 51.2024 170.365 52.0254C170.365 52.8483 170.531 53.5873 170.862 54.2051C171.193 54.8228 171.639 55.2938 172.196 55.6178C172.754 55.9442 173.372 56.105 174.048 56.105C174.725 56.105 175.347 55.9419 175.912 55.6178C176.476 55.2938 176.924 54.8205 177.258 54.2051C177.591 53.5897 177.757 52.8669 177.757 52.044C177.757 51.2211 177.591 50.5054 177.258 49.8923Z" fill="currentColor"/>
<path d="M184.838 46.9245C185.43 46.5794 186.149 46.4069 187 46.4069V48.2789H186.522C184.49 48.2789 183.473 49.3816 183.473 51.5846V57.5199H181.661V46.6074H183.473V48.3791C183.793 47.7567 184.248 47.2718 184.838 46.9245Z" fill="currentColor"/>
<path d="M34.6448 35.9065C31.7969 35.9065 29.1659 36.8437 27.0387 38.4219C26.6585 38.3893 26.2737 38.3683 25.8865 38.3683C22.4485 38.3683 19.2157 39.7064 16.7829 42.1379C12.1204 46.7957 11.7192 54.1717 15.85 59.2958L15.878 59.3308L15.857 59.3704C15.3532 60.3472 14.7327 61.0326 14.0143 61.4033L13.9584 61.4312C13.4545 61.6784 13.17 62.2122 13.2423 62.7647C13.261 63.2799 13.6481 63.7182 14.1916 63.858L14.3339 63.8883C14.6651 63.942 15.015 63.9676 15.3765 63.9676C16.2768 63.9676 18.0495 63.7928 19.8104 62.6178L19.8455 62.5945L19.8804 62.6131C21.7207 63.5829 23.7966 64.0935 25.8842 64.0935C28.7671 64.0935 31.503 63.1493 33.7468 61.4126C34.043 61.4336 34.3439 61.4475 34.6448 61.4475C41.6911 61.4475 47.4219 55.7197 47.4219 48.677C47.4219 41.6344 41.6888 35.9065 34.6448 35.9065ZM33.7981 59.142C33.6069 59.3331 33.4109 59.5126 33.2104 59.6851C27.7595 58.9787 23.533 54.314 23.533 48.6747C23.533 45.2594 25.0865 42.1985 27.5215 40.161C29.8913 40.506 32.0768 41.5971 33.7981 43.3175C35.9113 45.4296 37.0753 48.2387 37.0753 51.2297C37.0753 54.2207 35.9113 57.0275 33.7981 59.142ZM25.8818 62.4197C23.8992 62.4197 21.9563 61.8975 20.2606 60.9067L20.214 60.8787C19.9248 60.7086 19.5539 60.7295 19.2764 60.9393C18.0541 61.8905 16.7899 62.1865 15.9316 62.2635L15.738 62.2448L15.843 62.1469C16.5357 61.5268 17.1282 60.6689 17.604 59.5989L17.6366 59.5266C17.7462 59.2818 17.7299 59.009 17.6016 58.7853L17.3077 58.4052C13.4359 54.0435 13.7204 47.558 17.9678 43.3175C19.9248 41.3616 22.4788 40.2239 25.2194 40.0654C23.1388 42.3384 21.8677 45.362 21.8677 48.677C21.8677 54.5727 25.8865 59.5452 31.3281 61.0092C29.6814 61.9278 27.8201 62.4197 25.8818 62.4197ZM35.5288 59.7434C37.6117 57.3935 38.7523 54.4002 38.7523 51.232C38.7523 47.7958 37.4134 44.5624 34.9807 42.1332C33.4133 40.569 31.5123 39.4616 29.4435 38.8695C30.9969 38.0442 32.7672 37.5733 34.6448 37.5733C40.7721 37.5733 45.7566 42.5552 45.7566 48.6793C45.7566 54.8035 41.2456 59.2935 35.5312 59.7458L35.5288 59.7434Z" fill="currentColor"/>
</svg>
