<svg width="200" height="100" viewBox="0 0 200 100" fill="none" xmlns="http://www.w3.org/2000/svg">
<path d="M80.6091 31.3082V59.3457H119.391V31.3082H80.6091ZM101.253 50.8377H98.5847V40.7666L94.5181 48.7567H92.412L88.3463 40.7666V50.8377H85.6792V36.2421H88.8484L93.4985 45.4994L98.0857 36.2421H101.255L101.253 50.8377ZM107.676 55.425H104.84L107.238 50.1494H106.612L102.589 40.4957H105.486L108.383 47.7726L111.407 40.4957H114.243L107.676 55.425Z" fill="currentColor"/>
<path d="M80.6091 62.3979H84.8471V63.3282H81.9096V64.8962H84.5928V65.8265H81.9096V68.5821H80.6091V62.3979Z" fill="currentColor"/>
<path d="M85.8402 62.3979H87.1415V66.1015C87.1415 67.1557 87.494 67.7579 88.4879 67.7579C89.4818 67.7579 89.8343 67.1557 89.8343 66.1015V62.3979H91.1348V66.2792C91.1348 67.7836 90.1506 68.6915 88.4879 68.6915C86.8252 68.6915 85.8402 67.8222 85.8402 66.2792V62.3979Z" fill="currentColor"/>
<path d="M91.876 67.4789C92.23 67.6019 92.6031 67.6607 92.9778 67.6526C93.723 67.6526 94.0739 67.2144 94.0739 66.4594V62.3988H95.3744V66.8212C95.3744 67.9413 94.5197 68.6899 93.282 68.6899C92.806 68.7032 92.3308 68.6422 91.8736 68.509L91.876 67.4789Z" fill="currentColor"/>
<path d="M96.8881 62.3979H98.1879V68.5821H96.8881V62.3979Z" fill="currentColor"/>
<path d="M99.7163 62.3979H103.954V63.3282H101.017V64.8962H103.7V65.8265H101.017V68.5821H99.7163V62.3979Z" fill="currentColor"/>
<path d="M104.976 62.3979H106.276V68.5821H104.976V62.3979Z" fill="currentColor"/>
<path d="M107.762 62.3979H109.062V67.6526H111.579V68.5829H107.762V62.3979Z" fill="currentColor"/>
<path d="M112.406 62.3979H114.394L115.889 67.0849H115.908L117.403 62.3979H119.391V68.5821H118.192V63.5228H118.174L116.521 68.5821H115.276L113.623 63.5228L113.604 63.5405V68.5821H112.406V62.3979Z" fill="currentColor"/>
</svg>
