<svg width="201" height="100" viewBox="0 0 201 100" fill="none" xmlns="http://www.w3.org/2000/svg">
<g clip-path="url(#clip0_320_4916)">
<path d="M30.8 50.0338C30.8 50.8448 30.6423 51.6332 30.3495 52.3541C30.0341 53.075 29.606 53.7283 28.9978 54.314C28.4121 54.8772 27.7363 55.3277 26.9929 55.6206C26.2495 55.9134 25.461 56.0711 24.65 56.0711C23.839 56.0711 23.028 55.9134 22.2846 55.6206C21.5412 55.3277 20.8654 54.8772 20.2797 54.314C19.694 53.7283 19.2434 53.075 18.9505 52.3541C18.6352 51.6332 18.5 50.8448 18.5 50.0338C18.5 49.2228 18.6577 48.4343 18.9505 47.7134C19.2434 46.97 19.694 46.3167 20.2797 45.731C20.8654 45.1678 21.5412 44.7173 22.2846 44.4244C23.028 44.1316 23.8165 43.9739 24.65 43.9739C25.4835 43.9739 26.272 44.1316 27.0154 44.4244C27.7588 44.7173 28.4121 45.1678 28.9978 45.731C29.5835 46.3167 30.0341 46.97 30.3495 47.6909C30.6423 48.4343 30.8 49.2003 30.8 50.0338ZM28.8401 50.0338C28.8401 49.4481 28.7275 48.9074 28.5247 48.3667C28.322 47.8261 28.0066 47.3755 27.6011 46.97C27.2181 46.5645 26.7676 46.2492 26.2495 46.0464C25.7313 45.8211 25.1907 45.731 24.6275 45.731C24.0643 45.731 23.5236 45.8437 23.0055 46.0464C22.4874 46.2717 22.0368 46.5645 21.6313 46.9926C21.2709 47.3755 20.9555 47.8261 20.7527 48.3667C20.55 48.9074 20.4374 49.4481 20.4374 50.0338C20.4374 50.6195 20.55 51.1601 20.7527 51.6783C20.9555 52.1964 21.2709 52.6695 21.6538 53.075C22.0593 53.4805 22.5099 53.7959 23.0055 54.0211C23.5236 54.2464 24.0643 54.3365 24.6275 54.3365C25.1907 54.3365 25.7313 54.2239 26.2269 54.0211C26.7225 53.8184 27.1956 53.503 27.6011 53.075C28.0066 52.6695 28.2995 52.1964 28.5247 51.6783C28.75 51.1601 28.8401 50.597 28.8401 50.0338Z" fill="currentColor"/>
<path d="M37.8062 55.7558V44.2443H39.6759V54.0888H43.866V55.7558H37.8062Z" fill="currentColor"/>
<path d="M50.2864 55.7558V44.2443H52.1562V55.7558H50.2864Z" fill="currentColor"/>
<path d="M63.3748 56.2063L58.2385 44.2443H60.1759L62.7665 50.3717C62.9242 50.7322 63.0369 51.0476 63.1495 51.3629C63.2622 51.6783 63.3297 51.9487 63.3973 52.219C63.4649 51.9261 63.555 51.6333 63.6451 51.3179C63.7578 51.0025 63.8704 50.6871 64.0056 50.3717L66.5737 44.2443H68.5111L63.3748 56.2063Z" fill="currentColor"/>
<path d="M74.5259 55.7558V44.2443H80.9687V45.8437H76.4182V48.7272H80.9687V50.3717H76.4182V54.0888H80.9687V55.7558H74.5259Z" fill="currentColor"/>
<path d="M89.7318 50.6195V55.7783H87.9746V44.2443H90.5878C91.3537 44.2443 91.9394 44.2893 92.3675 44.402C92.7955 44.5146 93.1559 44.6723 93.4488 44.8976C93.8092 45.1679 94.0796 45.5283 94.2823 45.9789C94.485 46.4294 94.5752 46.9025 94.5752 47.4206C94.5752 48.3443 94.3499 49.0651 93.8993 49.5833C93.4488 50.1014 92.7955 50.4168 91.9169 50.5294L95.8818 55.7783H93.7642L89.9345 50.6195H89.7318ZM89.8444 49.1553H90.1823C91.1735 49.1553 91.8268 49.0426 92.1647 48.8173C92.4801 48.5921 92.6603 48.1866 92.6603 47.5783C92.6603 46.9701 92.4801 46.497 92.1422 46.2492C91.8043 46.0014 91.151 45.8662 90.2048 45.8662H89.8669L89.8444 49.1553Z" fill="currentColor"/>
<path d="M109.421 55.7558V44.2443H112.327C113.16 44.2443 113.769 44.2893 114.174 44.3794C114.58 44.4695 114.895 44.6047 115.188 44.83C115.548 45.1003 115.819 45.4382 116.021 45.8662C116.224 46.2943 116.314 46.7673 116.314 47.2629C116.314 47.8712 116.179 48.3893 115.886 48.7948C115.593 49.2003 115.188 49.4932 114.647 49.6509C115.323 49.7635 115.841 50.0564 116.224 50.5745C116.607 51.0701 116.81 51.7234 116.81 52.4893C116.81 52.9624 116.72 53.3904 116.562 53.8184C116.404 54.2465 116.157 54.6069 115.864 54.8998C115.548 55.2151 115.165 55.4404 114.692 55.5756C114.219 55.7107 113.453 55.7783 112.349 55.7783L109.421 55.7558ZM111.246 49.1102H111.967C112.868 49.1102 113.498 48.9976 113.859 48.7498C114.219 48.502 114.422 48.0965 114.422 47.5107C114.422 46.88 114.242 46.4294 113.904 46.1816C113.566 45.9338 112.913 45.7987 111.967 45.7987H111.246V49.1102ZM111.246 54.2014H111.899C112.552 54.2014 113.048 54.1789 113.363 54.1338C113.679 54.0888 113.949 53.9987 114.129 53.8635C114.354 53.7058 114.535 53.5031 114.67 53.2553C114.805 53.0074 114.85 52.7146 114.85 52.3992C114.85 52.0388 114.782 51.7234 114.625 51.4305C114.467 51.1602 114.264 50.9349 113.971 50.7998C113.791 50.7096 113.588 50.6421 113.363 50.597C113.138 50.552 112.823 50.5294 112.462 50.5294H111.246V54.2014Z" fill="currentColor"/>
<path d="M135.373 50.0339C135.373 50.8449 135.215 51.6333 134.922 52.3542C134.607 53.0751 134.179 53.7284 133.57 54.3141C132.985 54.8773 132.309 55.3278 131.565 55.6207C130.822 55.9135 130.033 56.0712 129.223 56.0712C128.412 56.0712 127.601 55.9135 126.857 55.6207C126.114 55.3278 125.438 54.8773 124.852 54.3141C124.266 53.7509 123.816 53.0976 123.523 52.3767C123.208 51.6559 123.073 50.8674 123.073 50.0564C123.073 49.2454 123.23 48.457 123.523 47.7361C123.816 47.0152 124.266 46.3619 124.852 45.7762C125.438 45.213 126.114 44.7624 126.857 44.4696C127.601 44.1767 128.389 44.019 129.223 44.019C130.056 44.019 130.844 44.1767 131.588 44.4696C132.331 44.7624 132.985 45.213 133.593 45.7762C134.179 46.3619 134.629 47.0152 134.944 47.7361C135.215 48.4344 135.373 49.2004 135.373 50.0339ZM133.435 50.0339C133.435 49.4482 133.323 48.9075 133.12 48.3668C132.917 47.8487 132.602 47.3756 132.196 46.9701C131.813 46.5646 131.363 46.2493 130.844 46.0465C130.326 45.8438 129.786 45.7311 129.223 45.7311C128.659 45.7311 128.119 45.8438 127.601 46.0465C127.082 46.2718 126.632 46.5646 126.226 46.9927C125.821 47.3982 125.528 47.8487 125.325 48.3894C125.123 48.93 125.01 49.4707 125.01 50.0564C125.01 50.6421 125.123 51.1828 125.325 51.7009C125.528 52.219 125.843 52.6921 126.226 53.0976C126.632 53.5031 127.082 53.8185 127.578 54.0438C128.074 54.269 128.637 54.3592 129.2 54.3592C129.763 54.3592 130.304 54.2465 130.799 54.0438C131.295 53.8185 131.768 53.5256 132.174 53.0976C132.579 52.6921 132.872 52.219 133.097 51.7009C133.323 51.1603 133.435 50.5971 133.435 50.0339Z" fill="currentColor"/>
<path d="M142.379 55.7558V43.7937L149.7 50.8448C149.903 51.0475 150.106 51.2503 150.308 51.4756C150.511 51.7008 150.736 51.9486 150.962 52.2415V44.2443H152.696V56.2063L145.24 49.0426C145.037 48.8399 144.857 48.6371 144.654 48.4344C144.474 48.2091 144.293 47.9838 144.113 47.7585V55.7558H142.379Z" fill="currentColor"/>
<path d="M167.812 55.7558L166.506 52.7822H161.933L160.603 55.7558H158.644L164.23 43.7937L169.795 55.7783L167.812 55.7558ZM162.631 51.2503H165.83L164.658 48.6146C164.591 48.4344 164.523 48.2541 164.456 48.0289C164.388 47.8036 164.298 47.5783 164.23 47.308C164.163 47.5558 164.095 47.8036 164.028 48.0063C163.96 48.2091 163.892 48.4344 163.802 48.6146L162.631 51.2503Z" fill="currentColor"/>
<path d="M175.066 53.458L176.553 52.7597C176.688 53.2778 176.958 53.6608 177.341 53.9311C177.724 54.2014 178.197 54.3366 178.783 54.3366C179.369 54.3366 179.774 54.1789 180.112 53.8635C180.45 53.5481 180.608 53.1426 180.608 52.6245C180.608 51.9487 180.045 51.3404 178.918 50.8223C178.761 50.7322 178.648 50.6871 178.558 50.6421C177.296 50.0113 176.44 49.4706 176.012 48.9525C175.584 48.4569 175.382 47.8487 175.382 47.1053C175.382 46.1591 175.697 45.4157 176.328 44.83C176.958 44.2443 177.792 43.9514 178.828 43.9514C179.684 43.9514 180.383 44.1091 180.968 44.447C181.532 44.7849 181.937 45.2355 182.162 45.8663L180.698 46.6322C180.473 46.2717 180.202 46.0014 179.932 45.8437C179.662 45.686 179.346 45.5959 178.986 45.5959C178.49 45.5959 178.085 45.7311 177.792 46.0014C177.499 46.2717 177.341 46.6097 177.341 47.0602C177.341 47.7586 177.995 48.3893 179.301 48.9976C179.391 49.0426 179.482 49.0877 179.527 49.1102C180.653 49.6283 181.441 50.1465 181.869 50.6421C182.297 51.1377 182.5 51.7684 182.5 52.5119C182.5 53.5932 182.162 54.4717 181.464 55.1025C180.788 55.7333 179.842 56.0712 178.671 56.0712C177.702 56.0712 176.891 55.8459 176.26 55.3954C175.629 54.9448 175.246 54.2915 175.066 53.458Z" fill="currentColor"/>
</g>
<defs>
<clipPath id="clip0_320_4916">
<rect width="164" height="12.4126" fill="white" transform="translate(18.5 43.7937)"/>
</clipPath>
</defs>
</svg>
