<svg width="200" height="100" viewBox="0 0 200 100" fill="none" xmlns="http://www.w3.org/2000/svg">
<path d="M116.75 47.4001C114.25 47.8001 113.05 49.6001 113.05 52.8001C113.05 56.0001 114.75 58.2001 117.25 58.2001C119.75 58.2001 119.55 57.8001 121.85 56.7001V59.3001C119.15 60.6001 117.55 60.9001 115.25 60.9001C112.95 60.9001 111.15 60.3001 109.85 58.9001C108.45 57.5001 107.75 55.6001 107.75 53.6001C107.75 49.0001 111.15 45.9001 116.15 45.9001C121.15 45.9001 121.75 47.4001 121.75 49.6001C121.75 51.8001 120.65 52.0001 119.15 52.0001C117.65 52.0001 117.65 51.8001 116.85 51.3001V47.4001H116.75ZM104.65 53.5001C106.85 50.7001 107.65 49.6001 107.65 48.2001C107.65 46.8001 106.55 45.7001 105.15 45.7001C103.75 45.7001 103.45 46.1001 103.05 46.6001V52.3001L99.4501 57.1001V46.1001H96.05L90.35 55.6001V46.1001H88.35L83.15 47.4001V48.7001L85.9501 49.0001V60.6001H89.65L95.15 51.6001V60.6001H99.15L104.75 53.5001H104.65ZM72.25 49.1001C73.05 49.1001 73.55 48.9001 73.95 48.9001C76.35 48.9001 77.65 50.5001 77.65 53.5001C77.65 56.5001 76.05 58.9001 73.15 58.9001C70.25 58.9001 72.75 58.9001 72.35 58.9001V49.2001L72.25 49.1001ZM72.25 60.5001C73.15 60.5001 74.15 60.5001 74.65 60.5001C79.55 60.5001 82.65 57.4001 82.65 52.7001C82.65 48.0001 80.35 45.8001 77.15 45.8001C73.95 45.8001 74.85 46.1001 72.25 47.7001V45.8001H70.75L65.05 47.5001V48.9001H67.45V65.1001L65.35 65.6001V66.9001H74.65V65.6001L72.25 65.1001V60.4001V60.5001Z" fill="currentColor"/>
<path d="M114.15 41.9H98.65L101.25 37.5H116.75L114.15 41.9ZM134.95 33.1H119.45L116.85 37.5H132.35L134.95 33.1Z" fill="currentColor"/>
</svg>
