<svg width="202" height="100" viewBox="0 0 202 100" fill="none" xmlns="http://www.w3.org/2000/svg">
<path d="M89.9361 47.1661C90.7225 45.1002 92.2367 44.6082 94.4786 44.6082H96.3801V50.1542H94.4786C94.4669 50.1189 94.4492 50.072 94.4258 50.0132C94.4023 49.9546 94.3436 49.8549 94.2496 49.7139C94.1557 49.5614 94.0383 49.4323 93.8975 49.3267C93.7685 49.2093 93.5865 49.1037 93.3518 49.0097C93.1171 48.9158 92.8529 48.8689 92.5594 48.8689C91.8201 48.8689 91.2332 49.1741 90.7989 49.7844C90.3646 50.383 90.1474 51.3396 90.1474 52.6543V57.8431H92.4186V60.7263H84.0204V57.8431H86.2917V48.0766H84.0204V45.0131H89.9361V47.1661Z" fill="currentColor"/>
<path d="M97.6133 52.9388C97.6133 50.3096 98.4877 48.2673 100.236 46.8118C101.633 45.6381 103.312 45.0511 105.272 45.0511C107.209 45.0511 108.875 45.6145 110.272 46.7413C111.951 48.0912 112.812 49.9458 112.859 52.305C112.872 53.021 112.802 53.7722 112.648 54.5586H101.592C101.592 55.4741 102.009 56.2782 102.842 56.9707C103.676 57.6632 104.832 58.0094 106.311 58.0094C108.055 58.0094 109.542 57.4148 110.768 56.2252C110.768 56.2252 111.915 57.3502 112.773 58.2383C112.104 59.013 111.17 59.6821 109.973 60.2455C108.787 60.8089 107.555 61.0905 106.275 61.0905C104.785 61.0905 103.47 60.8792 102.332 60.4568C101.205 60.0342 100.301 59.4473 99.6203 58.6961C98.9512 57.9448 98.4466 57.0881 98.1062 56.1255C97.7775 55.1631 97.6133 54.1009 97.6133 52.9388ZM101.592 51.6711H109.445C109.445 50.7908 109.081 49.9692 108.352 49.2062C107.637 48.4434 106.669 48.0619 105.448 48.0619C104.298 48.0619 103.365 48.4375 102.649 49.1888C101.944 49.9398 101.592 50.7674 101.592 51.6711Z" fill="currentColor"/>
<path d="M118.513 49.1534C118.513 49.4469 118.641 49.711 118.899 49.9458C119.159 50.1688 119.499 50.3507 119.921 50.4915C120.343 50.6323 120.825 50.785 121.365 50.9493C121.917 51.102 122.474 51.2545 123.037 51.407C123.601 51.5597 124.153 51.771 124.692 52.0409C125.243 52.2991 125.732 52.5926 126.154 52.9213C126.576 53.2382 126.916 53.6606 127.174 54.1889C127.434 54.7171 127.562 55.3097 127.562 55.9671C127.562 56.5422 127.457 57.1056 127.245 57.6573C127.034 58.1972 126.693 58.7255 126.224 59.2418C125.755 59.7583 125.069 60.175 124.163 60.4919C123.26 60.8089 122.193 60.9674 120.96 60.9674C117.814 60.9674 115.684 59.9931 114.569 58.0447V55.3157H118.407V56.3545C118.407 56.7652 118.589 57.1115 118.953 57.3931C119.317 57.6632 119.757 57.8334 120.273 57.9037C120.801 57.9625 121.324 57.9565 121.84 57.8862C122.357 57.8157 122.797 57.6455 123.161 57.3757C123.525 57.0939 123.706 56.7535 123.706 56.3545C123.706 56.0375 123.572 55.7617 123.302 55.527C123.044 55.2805 122.698 55.0809 122.263 54.9284C121.84 54.7757 121.353 54.6115 120.801 54.4353C120.262 54.2594 119.703 54.0949 119.128 53.9424C118.566 53.778 118.008 53.5609 117.457 53.291C116.916 53.0092 116.429 52.6982 115.995 52.3579C115.573 52.0175 115.227 51.5772 114.956 51.0374C114.698 50.4857 114.569 49.8695 114.569 49.1888C114.569 48.6017 114.686 48.0383 114.92 47.4985C115.167 46.9469 115.526 46.448 115.995 46.002C116.465 45.5442 117.098 45.1804 117.897 44.9103C118.706 44.6287 119.622 44.4877 120.642 44.4877C121.394 44.4877 122.092 44.5523 122.737 44.6815C123.395 44.8106 123.911 44.9514 124.288 45.104C124.675 45.2567 125.027 45.4443 125.344 45.6674C125.672 45.8904 125.878 46.0431 125.959 46.1251C126.055 46.2073 126.136 46.2953 126.206 46.3892L126.224 46.4069V49.6112H123.161V49.1534C123.161 48.7896 123.002 48.4669 122.685 48.1851C122.368 47.8918 121.98 47.6979 121.524 47.6042C121.066 47.5103 120.608 47.4868 120.15 47.5337C119.692 47.5689 119.305 47.7333 118.987 48.0266C118.672 48.3084 118.513 48.6839 118.513 49.1534Z" fill="currentColor"/>
<path d="M137 60.6856H128.602V57.8024H130.874V48.3964H128.602V45.0122H134.73V57.8024H137V60.6856Z" fill="currentColor"/>
<path d="M132.828 43.5223C133.461 43.5223 134.002 43.2993 134.447 42.8532C134.905 42.3955 135.134 41.8497 135.134 41.2159C135.134 40.582 134.905 40.0422 134.447 39.5961C134.002 39.1384 133.461 38.9094 132.828 38.9094C132.194 38.9094 131.649 39.1384 131.191 39.5961C130.733 40.0422 130.504 40.582 130.504 41.2159C130.504 41.8497 130.733 42.3955 131.191 42.8532C131.649 43.2993 132.194 43.5223 132.828 43.5223Z" fill="currentColor"/>
<path d="M65 46.7421L71.6855 45.0394L72.4463 48.027L76.91 46.8901L79.7088 57.8801L68.56 60.7207L65 46.7421Z" fill="currentColor"/>
</svg>
