<svg width="201" height="100" viewBox="0 0 201 100" fill="none" xmlns="http://www.w3.org/2000/svg">
<path d="M148.61 57.5535C148.84 57.9935 149.197 58.3499 149.632 58.5738C150.051 58.8177 150.539 58.909 151.016 58.8329C151.447 58.7447 151.846 58.5326 152.165 58.2212C152.433 57.944 152.63 57.6029 152.737 57.2286C152.845 56.8543 152.861 56.4584 152.783 56.0765C152.608 55.0737 151.367 54.5795 150.834 54.5612C150.301 54.5428 149.551 54.5164 148.666 55.9461C148.54 56.1926 148.469 56.465 148.459 56.7433C148.45 57.0215 148.501 57.2985 148.61 57.5535Z" fill="currentColor"/>
<path d="M62.9699 41.9413H47.3335V46.7631H48.2205C48.5009 45.945 48.8798 45.166 49.3486 44.4442C49.8687 43.6205 50.3472 43.177 50.7841 43.1135C51.0259 43.0821 51.3247 43.0554 51.6804 43.0336C52.0362 43.0117 52.3425 42.9998 52.5995 42.9976H53.1323V56.3349C53.1386 56.5962 53.0879 56.8557 52.9841 57.0945C52.8564 57.3349 52.6454 57.5173 52.3927 57.6055C52.1298 57.694 51.8568 57.7477 51.5806 57.7654L50.6538 57.8662V58.7922H59.6488V57.8662C59.3888 57.8347 59.0767 57.7815 58.7126 57.7063C58.4365 57.656 58.1649 57.5824 57.9006 57.4864C57.6508 57.3947 57.4437 57.2104 57.3201 56.9698C57.2175 56.7325 57.1669 56.4751 57.1719 56.2157V42.9976H57.7055C57.9624 42.9976 58.2688 43.0096 58.6244 43.0336C58.9802 43.0576 59.2788 43.0842 59.5201 43.1135C59.959 43.1775 60.4375 43.6211 60.9555 44.4442C61.4246 45.166 61.8041 45.945 62.0852 46.7631H62.9722L62.9699 41.9413Z" fill="currentColor"/>
<path d="M69.6547 59.1727C68.7871 59.1815 67.9243 59.041 67.1021 58.7569C66.3391 58.4878 65.637 58.0634 65.0378 57.5095C64.4512 56.962 63.9861 56.2916 63.6741 55.5439C63.332 54.7162 63.1615 53.8247 63.1733 52.9259C63.1592 52.06 63.3078 51.1994 63.6109 50.391C63.9083 49.6445 64.356 48.9707 64.9247 48.4135C65.519 47.8395 66.2248 47.4005 66.996 47.1253C67.8838 46.8101 68.8182 46.6553 69.7577 46.6679C70.7109 46.6508 71.6598 46.8056 72.5607 47.1253C73.3301 47.4072 74.036 47.8457 74.6359 48.4143C75.1984 48.9637 75.6372 49.6323 75.9215 50.3734C76.2216 51.1603 76.3723 51.9987 76.3655 52.8436C76.3699 53.6933 76.2212 54.5367 75.927 55.3312C75.6497 56.0862 75.2127 56.7688 74.6476 57.3304C74.0333 57.9329 73.3035 58.398 72.5046 58.6961C71.5897 59.0269 70.6247 59.1883 69.6547 59.1727ZM69.7803 47.6275C69.3076 47.604 68.8445 47.7701 68.4891 48.0905C68.1518 48.4242 67.8964 48.8354 67.7441 49.2899C67.5721 49.8026 67.4614 50.3348 67.4141 50.8749C67.3527 51.5041 67.3225 52.136 67.3237 52.7684C67.3237 53.6304 67.3502 54.3517 67.4017 54.9122C67.4585 55.4949 67.5883 56.0676 67.7878 56.6163C67.9357 57.0656 68.1951 57.4676 68.5406 57.7829C68.8894 58.0751 69.3302 58.227 69.7803 58.2099C70.2037 58.2192 70.6172 58.0779 70.9506 57.8102C71.3066 57.499 71.5738 57.0946 71.7237 56.6402C71.9087 56.1187 72.0328 55.5764 72.0935 55.025C72.1785 54.2924 72.2186 53.5549 72.2135 52.8172C72.2084 52.1819 72.1704 51.5475 72.0997 50.9164C72.0525 50.3422 71.9377 49.776 71.758 49.23C71.6072 48.7786 71.3471 48.3738 71.002 48.0536C70.6597 47.7626 70.2247 47.6109 69.7803 47.6275Z" fill="currentColor"/>
<path d="M98.5991 57.6406C98.4026 57.5673 98.2402 57.4208 98.1442 57.2304C98.0523 57.0074 98.0097 56.7663 98.0194 56.5243V50.7533C98.0882 49.6683 97.7575 48.5962 97.0927 47.749C96.753 47.3861 96.3403 47.1036 95.8834 46.921C95.4263 46.7384 94.9359 46.6602 94.4463 46.6919C93.9488 46.6882 93.4534 46.756 92.9742 46.8934C92.5749 47.0014 92.1934 47.1696 91.8423 47.3924C91.5337 47.6009 91.241 47.8332 90.9669 48.0873C90.6487 48.3768 90.3795 48.6281 90.1595 48.8413H90.0565C89.8192 48.1988 89.3869 47.6513 88.8231 47.2796C88.1737 46.8681 87.4196 46.6635 86.6567 46.6919C86.1688 46.6871 85.6826 46.7512 85.2118 46.8822C84.8304 46.9827 84.4662 47.1427 84.1321 47.3564C83.8389 47.5508 83.5632 47.7716 83.3083 48.0161L82.5523 48.7222H82.5063V47.0477L82.3354 46.8694L76.9111 47.1789V48.0449C77.1441 48.0657 77.3745 48.1097 77.5992 48.176C77.7824 48.2288 77.9568 48.3097 78.1165 48.4159C78.3115 48.5661 78.4715 48.7589 78.5845 48.9805C78.7094 49.207 78.7757 49.4624 78.7772 49.7225V56.6314C78.7872 56.8745 78.7407 57.1165 78.6414 57.3376C78.5298 57.5331 78.3513 57.6793 78.1407 57.7478C77.9834 57.8081 77.8193 57.8479 77.6523 57.8661C77.4619 57.8896 77.2685 57.9093 77.0718 57.9253V58.7929H83.8817V57.9253C83.713 57.9035 83.547 57.8638 83.3863 57.807C83.2423 57.7575 83.1033 57.6937 82.9712 57.6167C82.8042 57.5231 82.6751 57.3717 82.6069 57.1896C82.5327 56.968 82.4981 56.7346 82.5047 56.5004V50.1239C82.5885 50.005 82.6912 49.8625 82.8129 49.6961C82.9594 49.5054 83.1324 49.3375 83.3262 49.198C83.5437 49.0362 83.7794 48.9019 84.0283 48.7982C84.3062 48.6872 84.6024 48.6329 84.9005 48.6382C85.1337 48.6273 85.3656 48.6777 85.5744 48.7848C85.7831 48.8919 85.9615 49.0521 86.0927 49.25C86.4062 49.8056 86.5505 50.4448 86.5069 51.0852V56.6314C86.5151 56.8789 86.4905 57.1264 86.4336 57.3672C86.4096 57.4491 86.3697 57.5252 86.316 57.5906C86.2623 57.6561 86.1961 57.7095 86.1214 57.7478C85.9793 57.8151 85.8261 57.8553 85.6698 57.8661L85.151 57.9253V58.7929H91.6105V57.9253C91.4434 57.9034 91.279 57.8637 91.1198 57.807C90.977 57.7575 90.8393 57.6937 90.7087 57.6167C90.545 57.5243 90.419 57.3748 90.3538 57.1952C90.2828 56.9711 90.2504 56.7359 90.2578 56.5004V50.1239C90.3415 50.005 90.444 49.8625 90.5652 49.6961C90.7117 49.5055 90.8847 49.3376 91.0785 49.198C91.296 49.0362 91.5318 48.902 91.7807 48.7982C92.0584 48.6872 92.3547 48.6328 92.6529 48.6382C92.8865 48.6267 93.1193 48.677 93.3285 48.7842C93.5379 48.8916 93.7168 49.0522 93.848 49.2507C94.1621 49.806 94.3068 50.4449 94.2638 51.0852V56.6314C94.269 56.8733 94.2462 57.1149 94.196 57.3511C94.1781 57.4382 94.1406 57.5197 94.0863 57.5892C94.0322 57.6587 93.9628 57.714 93.8839 57.751C93.7424 57.8199 93.5893 57.8601 93.4329 57.8693C93.2525 57.8848 93.0796 57.9045 92.9142 57.9285V58.7962H99.6694V57.9253C99.4594 57.9068 99.2517 57.8672 99.0492 57.807C98.8962 57.7612 98.7453 57.7057 98.5991 57.6406Z" fill="currentColor"/>
<path d="M105.358 59.2088C104.092 59.2598 102.852 58.833 101.872 58.0094C101.431 57.6262 101.08 57.1461 100.845 56.6048C100.61 56.0636 100.496 55.475 100.513 54.8827C100.502 54.3225 100.584 53.7645 100.758 53.2331C100.945 52.7317 101.212 52.2659 101.548 51.8545C101.918 51.3907 102.356 50.9873 102.844 50.6581C103.399 50.2837 103.981 49.9522 104.584 49.6666C104.022 48.9585 103.543 48.1846 103.157 47.3613C102.893 46.7469 102.755 46.0832 102.753 45.4117C102.747 44.8642 102.868 44.3231 103.105 43.8325C103.343 43.3419 103.69 42.9158 104.118 42.589C105.048 41.8441 106.199 41.4517 107.379 41.4783C108.407 41.4313 109.421 41.7413 110.257 42.3578C110.608 42.6274 110.892 42.9796 111.084 43.3847C111.276 43.7898 111.37 44.2363 111.359 44.6864C111.369 45.4885 111.139 46.2745 110.7 46.9382C110.108 47.7354 109.361 48.3971 108.505 48.8805C109.129 49.7266 109.768 50.5608 110.421 51.3827C110.895 51.9688 111.501 52.7101 112.223 53.5873C112.65 52.9492 113.011 52.2677 113.301 51.5538C113.512 51.0609 113.633 50.5328 113.659 49.9953C113.659 49.7554 113.489 49.5643 113.153 49.4179C112.691 49.2352 112.214 49.0978 111.726 49.0077V48.105H118.083V49.007C117.565 49.0391 117.053 49.127 116.553 49.2692C116.18 49.41 115.846 49.6426 115.581 49.9465C115.384 50.1772 115.215 50.4308 115.075 50.7021C114.861 51.0852 114.664 51.4435 114.501 51.7417C114.279 52.1496 114.043 52.5774 113.798 53.0147C113.523 53.4974 113.219 53.9624 112.889 54.4069C113.424 55.0828 113.999 55.7238 114.612 56.3261C114.947 56.6603 115.319 56.9534 115.721 57.1993C116.111 57.4044 116.529 57.5507 116.96 57.6335C117.451 57.7388 117.949 57.8081 118.45 57.8406V58.7914H111.76C111.593 58.5955 111.37 58.3292 111.058 57.9533C110.775 57.6159 110.526 57.3056 110.318 57.0329C109.622 57.7341 108.807 58.2998 107.914 58.7026C107.102 59.0412 106.234 59.2132 105.358 59.2088ZM105.13 50.4382C104.733 50.8425 104.434 51.3373 104.258 51.8824C104.083 52.4167 103.992 52.9764 103.99 53.5401C103.974 54.0151 104.051 54.4885 104.218 54.9321C104.384 55.3756 104.637 55.7798 104.96 56.1206C105.281 56.4498 105.665 56.7082 106.087 56.88C106.509 57.0518 106.961 57.1332 107.415 57.1194C107.824 57.1272 108.232 57.0645 108.621 56.9338C109.02 56.776 109.389 56.5487 109.713 56.2621L107.489 53.4689C106.691 52.4683 105.905 51.4579 105.13 50.4382ZM107.893 42.6297C107.672 42.621 107.451 42.6602 107.245 42.745C107.039 42.8297 106.853 42.9581 106.699 43.1215C106.388 43.4728 106.225 43.9352 106.244 44.409C106.267 44.9546 106.411 45.4879 106.665 45.9683C107.042 46.7082 107.476 47.4163 107.962 48.0857C108.497 47.7128 108.933 47.2094 109.23 46.6208C109.495 46.0776 109.633 45.4785 109.633 44.8711C109.665 44.2825 109.494 43.701 109.149 43.2287C108.999 43.0364 108.808 42.8824 108.59 42.7785C108.372 42.6746 108.134 42.6237 107.893 42.6297Z" fill="currentColor"/>
<path d="M127.665 59.256C126.532 59.2636 125.407 59.0598 124.344 58.6547C123.338 58.2704 122.42 57.6778 121.647 56.9138C120.873 56.1297 120.27 55.1876 119.876 54.1486C119.435 52.9955 119.215 51.7662 119.228 50.5279V50.5215V50.5159V50.5094V50.5039C119.228 50.4038 119.234 50.3055 119.239 50.2103C119.239 50.1592 119.245 50.1089 119.247 50.0576C119.247 50.0192 119.247 49.9777 119.251 49.9417C119.251 49.8769 119.251 49.8106 119.26 49.7474C119.32 48.7603 119.531 47.789 119.884 46.8686C120.3 45.7881 120.924 44.8042 121.718 43.9755C122.511 43.1631 123.46 42.5293 124.505 42.1148C125.614 41.6709 126.794 41.4468 127.984 41.4542C128.812 41.445 129.635 41.5611 130.429 41.7989C131.075 41.9916 131.7 42.2501 132.295 42.5706L132.997 41.9181H133.988L134.091 48.0697V48.0913H133.09C132.707 46.5762 132.009 45.1635 131.046 43.9491C130.682 43.5282 130.234 43.1923 129.732 42.9645C129.23 42.7365 128.687 42.6218 128.138 42.6281C127.471 42.6114 126.813 42.7873 126.238 43.1356C125.664 43.484 125.196 43.9909 124.89 44.5985C124.064 46.3077 123.681 48.2057 123.776 50.1104C123.757 51.262 123.885 52.4113 124.157 53.5289C124.354 54.3462 124.691 55.1213 125.152 55.8183C125.553 56.3879 126.088 56.8445 126.707 57.1457C127.333 57.4317 128.011 57.5755 128.696 57.5671C129.71 57.5805 130.701 57.2645 131.529 56.6643C132.467 55.9318 133.24 55 133.795 53.9327L133.804 53.9375C134.188 53.1588 134.533 52.3605 134.838 51.5457V51.5418C134.907 51.147 135.014 50.7604 135.159 50.3879C135.457 49.6415 135.905 48.9678 136.474 48.4112C137.07 47.8364 137.777 47.3971 138.55 47.1222C139.436 46.8087 140.369 46.655 141.306 46.668C142.26 46.6508 143.208 46.8057 144.11 47.1253C144.879 47.4063 145.584 47.8437 146.185 48.4112C146.748 48.9606 147.187 49.6292 147.471 50.3703C147.771 51.1572 147.921 51.9955 147.915 52.8404C147.919 53.6902 147.77 54.5335 147.476 55.3281C147.199 56.0829 146.762 56.7655 146.198 57.3272C145.584 57.9299 144.853 58.395 144.054 58.693C143.139 59.0234 142.174 59.1842 141.205 59.168C140.337 59.1768 139.474 59.0362 138.652 58.7522C137.889 58.4829 137.187 58.0587 136.587 57.5047C136 56.9591 135.534 56.2908 135.221 55.5448C135.065 55.176 134.947 54.7917 134.868 54.3981C134.694 54.7491 134.485 55.1338 134.283 55.4808L134.209 55.604C134.04 55.8951 133.855 56.1767 133.656 56.4476C133.246 56.9911 132.759 57.4694 132.212 57.867C131.604 58.3062 130.935 58.6497 130.228 58.8865C129.398 59.1476 128.533 59.2722 127.665 59.256ZM141.329 47.6299C140.856 47.6067 140.393 47.773 140.039 48.0938C139.701 48.4274 139.446 48.8385 139.293 49.2932C139.121 49.8059 139.01 50.338 138.963 50.878C138.902 51.5073 138.872 52.1393 138.873 52.7716C138.873 53.6512 138.898 54.3517 138.951 54.9155C139.009 55.4983 139.14 56.0711 139.341 56.6195C139.489 57.0678 139.747 57.4691 140.092 57.7838C140.44 58.0758 140.881 58.2276 141.331 58.2108C141.755 58.2203 142.168 58.079 142.502 57.811C142.857 57.5001 143.125 57.0957 143.274 56.6411C143.46 56.1194 143.583 55.5773 143.644 55.0259C143.729 54.2932 143.769 53.5558 143.764 52.818C143.758 52.1828 143.721 51.5483 143.649 50.9173C143.603 50.3431 143.488 49.7768 143.308 49.2308C143.157 48.7807 142.898 48.3769 142.554 48.0569C142.211 47.765 141.775 47.6131 141.329 47.6299Z" fill="currentColor"/>
</svg>
