<svg width="200" height="100" viewBox="0 0 200 100" fill="none" xmlns="http://www.w3.org/2000/svg">
<path d="M102.936 38.1438C103.364 37.9011 104.021 37.6299 104.421 37.5299C104.82 37.43 105.748 37.3729 106.562 37.3872C107.733 37.4157 108.132 37.4871 108.775 37.7869C109.203 37.9868 109.803 38.3294 110.102 38.5578C110.402 38.8005 110.645 39.0574 110.645 39.1288C110.645 39.2002 110.302 39.5571 109.903 39.9139C109.274 40.4564 109.132 40.5278 108.932 40.385C108.803 40.2851 108.389 40.0281 107.99 39.8283C107.419 39.5285 107.076 39.4429 106.277 39.4429C105.42 39.4429 105.163 39.5 104.492 39.8711C103.935 40.1709 103.579 40.4992 103.279 40.9846C102.965 41.4842 102.836 41.8982 102.793 42.4693C102.779 42.9118 102.822 43.5256 102.908 43.8397C102.979 44.1538 103.264 44.6677 103.536 44.9817C103.821 45.3244 104.335 45.6955 104.792 45.8954C105.434 46.1809 105.734 46.2237 106.562 46.1666C107.119 46.1238 107.704 46.0239 107.89 45.9382C108.189 45.7812 108.204 45.6812 108.204 42.6263H110.631L110.559 46.966L110.06 47.2944C109.788 47.48 109.174 47.7655 108.703 47.9225C108.232 48.0795 107.304 48.2508 106.633 48.2937C105.748 48.3508 105.177 48.3079 104.535 48.1366C104.035 48.0081 103.393 47.7797 103.107 47.637C102.808 47.4942 102.251 47.0802 101.865 46.7519C101.437 46.3522 101.009 45.7812 100.723 45.1959C100.324 44.3536 100.281 44.1538 100.281 42.8404C100.281 41.6127 100.338 41.2987 100.638 40.6277C100.838 40.1995 101.266 39.5571 101.594 39.2002C101.908 38.8433 102.522 38.3722 102.936 38.1438Z" fill="currentColor"/>
<path d="M74.3708 39.4857V38.4864V37.4871H83.9354V39.4857H80.3666V48.1937H77.9397V39.4857H74.3708Z" fill="currentColor"/>
<path d="M87.2902 48.1223L87.2473 42.8119L87.2188 37.4871H89.7884V41.627H94.7848V37.4871H97.2116V48.1937H94.7848V43.7683H89.7884V48.1937L87.2902 48.1223Z" fill="currentColor"/>
<path d="M146.819 48.7933C146.947 48.622 147.19 48.4079 147.361 48.3365C147.533 48.2794 147.818 48.208 147.99 48.208C148.161 48.208 148.503 48.3936 148.732 48.622C149.017 48.9075 149.16 49.193 149.16 49.4785C149.16 49.764 149.017 50.0638 148.746 50.3351C148.461 50.6348 148.189 50.7633 147.89 50.7633C147.59 50.7633 147.319 50.6348 147.019 50.3351C146.762 50.0781 146.591 49.764 146.591 49.5213C146.591 49.3072 146.69 48.9789 146.819 48.7933Z" fill="currentColor"/>
<path d="M77.9254 62.7547V57.33V51.9054H80.2095V62.7547H77.9254Z" fill="currentColor"/>
<path d="M84.1924 57.43C84.1781 54.5035 84.2209 52.0624 84.278 52.0053C84.3494 51.9625 84.8062 51.9196 86.2052 51.9054L86.762 52.5906C87.076 52.9617 88.2324 54.4178 89.3458 55.8311C90.4593 57.2587 91.4301 58.4293 91.5014 58.4435C91.5871 58.4578 91.6299 57.1587 91.6299 51.9054L93.8426 51.9767L93.914 62.7547H91.9154L91.0161 61.6555C90.5307 61.0417 89.3601 59.5713 86.7049 56.188L86.6335 62.7547H84.2067L84.1924 57.43Z" fill="currentColor"/>
<path d="M98.5535 53.0759C98.939 52.7904 99.6813 52.405 100.195 52.2337C100.995 51.9482 101.352 51.9054 102.765 51.9482C104.264 51.991 104.492 52.0338 105.334 52.4478C105.848 52.6905 106.448 53.0759 107.062 53.6898L106.234 54.4464C105.406 55.203 105.406 55.203 105.12 54.9318C104.963 54.7747 104.549 54.5178 104.192 54.3465C103.736 54.1466 103.25 54.061 102.479 54.061C101.523 54.0467 101.337 54.1038 100.638 54.5178C100.024 54.8889 99.7669 55.1459 99.4529 55.7597C99.1388 56.3736 99.0532 56.7447 99.0532 57.4014C99.0532 57.8868 99.1388 58.4864 99.253 58.7576C99.3672 59.0431 99.6385 59.4856 99.8669 59.7426C100.081 60.0138 100.524 60.3707 100.838 60.5278C101.28 60.7562 101.68 60.8275 102.551 60.8275C103.279 60.8275 103.85 60.7419 104.549 60.3993L104.621 57.33L106.905 57.3443L106.833 61.6841L105.834 62.198C105.149 62.5549 104.464 62.769 103.621 62.8975C102.679 63.0545 102.194 63.0545 101.409 62.926C100.866 62.8404 100.024 62.5834 99.5528 62.355C99.0817 62.1409 98.4393 61.7269 98.1253 61.4557C97.8112 61.1701 97.3544 60.5706 97.1117 60.0995C96.8547 59.6427 96.5835 58.8432 96.4979 58.3293C96.3979 57.8297 96.3694 57.1159 96.4265 56.759C96.4836 56.4164 96.6263 55.8597 96.7263 55.5456C96.8405 55.2458 97.1403 54.6748 97.3829 54.2894C97.6399 53.9039 98.1681 53.3472 98.5535 53.0759Z" fill="currentColor"/>
<path d="M110.045 62.7547L110.074 57.3158L110.088 51.8768L114.1 51.9482C116.312 52.0053 118.14 52.0481 118.154 52.0481C118.168 52.0481 118.182 52.5335 118.182 54.1894H112.472V56.188H114.97C116.355 56.188 117.54 56.2308 117.611 56.2594C117.697 56.3022 117.825 56.3308 117.897 56.3308C117.982 56.3308 118.04 56.7876 118.04 58.4721H112.472V60.6134H118.325V62.7547H110.045Z" fill="currentColor"/>
<path d="M121.466 57.4442C121.409 54.5178 121.394 52.0767 121.437 52.0196C121.466 51.9482 121.894 51.9054 122.379 51.9054C122.865 51.9054 123.336 51.9625 123.421 52.0196C123.493 52.0767 124.678 53.5328 126.034 55.2601C127.39 56.9874 128.561 58.415 128.632 58.4435C128.703 58.4578 128.76 57.016 128.76 51.9054L131.116 51.9767L131.159 56.188C131.187 58.5006 131.159 60.9275 131.045 62.7547H129.046L123.835 56.2023L123.764 62.7547H121.551L121.466 57.4442Z" fill="currentColor"/>
<path d="M146.748 62.8975V57.4014L146.762 51.8911L149.089 51.9767V62.8261L146.748 62.8975Z" fill="currentColor"/>
<path d="M151.858 53.1473C151.844 52.5763 151.887 52.0624 151.944 52.0053C152.015 51.9625 154.085 51.9196 161.009 51.9196V54.2037H157.725L157.654 62.8404L155.299 62.9118V54.2037H151.872L151.858 53.1473Z" fill="currentColor"/>
<path d="M164.292 55.2315C162.736 52.9189 162.222 52.0481 162.379 52.0196C162.508 52.0053 163.164 52.0196 165.034 52.1338L166.276 54.0752C166.947 55.1459 167.561 56.0595 167.618 56.1166C167.675 56.1595 168.304 55.2601 170.288 52.0624H171.644C172.386 52.0624 173 52.0909 173 52.1338C173 52.1623 172.087 53.5613 168.932 58.2722L168.789 62.8404L166.433 62.9118V58.415L164.292 55.2315Z" fill="currentColor"/>
<path d="M134.599 60.6134C134.257 59.8568 134.242 59.7569 134.199 55.9453L134.157 52.0624H136.455L136.498 55.6598C136.526 58.7861 136.569 59.3286 136.783 59.7283C136.926 60.0138 137.269 60.2993 137.64 60.4849C137.968 60.6277 138.525 60.7562 138.882 60.7562C139.239 60.7562 139.795 60.6277 140.138 60.4849C140.509 60.2993 140.838 60.0138 140.995 59.7283C141.209 59.3286 141.237 58.8004 141.28 52.0624H143.55L143.521 59.9853L143.15 60.6991C142.936 61.0845 142.579 61.5841 142.365 61.784C142.137 61.9981 141.694 62.2979 141.38 62.4692C141.066 62.6262 140.452 62.8404 140.024 62.926C139.581 63.0117 138.839 63.0402 138.311 62.9974C137.797 62.9403 137.069 62.7547 136.669 62.5691C136.284 62.3978 135.727 62.0552 135.456 61.8125C135.184 61.5699 134.799 61.0274 134.599 60.6134Z" fill="currentColor"/>
<path d="M77.8398 65.0103C77.8826 64.7961 78.0682 64.4821 78.2395 64.325C78.4251 64.1537 78.7534 64.0395 79.0675 64.0395C79.4244 64.0395 79.6813 64.1394 79.9668 64.425C80.2238 64.6819 80.3666 64.9817 80.3666 65.2529C80.3666 65.5099 80.2238 65.8382 79.9954 66.0809C79.7384 66.3664 79.4958 66.4664 79.1389 66.4664C78.8676 66.4664 78.525 66.4093 78.3965 66.3521C78.2538 66.2808 78.0539 66.0381 77.954 65.8097C77.8398 65.5813 77.797 65.2244 77.8398 65.0103Z" fill="currentColor"/>
<path d="M47.033 31.135C48.6889 31.1636 50.6167 31.2632 51.3162 31.3489C52.0157 31.4345 53.243 31.6343 54.0281 31.7913C54.8132 31.9483 56.0699 32.2621 56.8123 32.4905C57.5546 32.7189 58.7107 33.1758 59.3816 33.5042C60.2809 33.961 60.8522 34.3608 61.5945 35.1174C62.2938 35.8168 62.7934 36.4877 63.1931 37.2727C63.5214 37.9008 63.9787 38.9857 64.2214 39.6995C64.4498 40.4131 64.8057 41.7838 65.0056 42.7688C65.2055 43.7538 65.4342 45.2677 65.5056 46.1243C65.5912 46.9951 65.6628 48.7218 65.6628 49.9778C65.6628 51.2339 65.6059 52.9329 65.5203 53.761C65.4346 54.5889 65.2492 55.9595 65.0779 56.8303C64.9209 57.7011 64.5924 59.0432 64.364 59.8284C64.1213 60.6135 63.6781 61.7696 63.364 62.3977C63.0642 63.0258 62.5361 63.8685 62.2078 64.2825C61.8651 64.6822 61.266 65.2675 60.8806 65.553C60.4809 65.8528 59.5811 66.3662 58.8816 66.6946C58.1821 67.0372 57.0544 67.466 56.3835 67.6516C55.7126 67.8514 54.4283 68.1366 53.5291 68.3079C52.6297 68.4649 51.0161 68.6792 49.9597 68.7649C48.7606 68.8648 46.8764 68.9079 44.9636 68.8508C43.2791 68.7937 41.2517 68.6649 40.4666 68.5364C39.6814 68.4222 38.2396 68.1228 37.2546 67.8801C36.2697 67.6375 34.9276 67.1949 34.2566 66.9094C33.5857 66.6239 32.7005 66.167 32.2722 65.8958C31.844 65.6245 31.1585 65.0244 30.7302 64.5676C30.2307 64.0252 29.7315 63.2686 29.2605 62.2981C28.8751 61.4844 28.3606 60.1279 28.1179 59.2571C27.8753 58.3863 27.5474 56.8163 27.3904 55.76C27.2191 54.6465 27.0621 52.6906 27.0193 51.1204C26.9765 49.4787 27.0043 47.7367 27.1042 46.6946C27.1899 45.7524 27.3621 44.4102 27.4763 43.6965C27.5905 42.9829 27.7903 42.0269 27.9187 41.5559C28.0329 41.0848 28.3038 40.185 28.5037 39.5569C28.7035 38.9287 29.1314 37.9008 29.4597 37.2727C29.7738 36.6589 30.345 35.817 30.7019 35.4172C31.0588 35.0318 31.7298 34.4461 32.2009 34.1321C32.6578 33.8323 33.5572 33.3613 34.1853 33.0901C34.8133 32.8332 36.0407 32.4337 36.8972 32.2053C37.7537 31.9912 39.1101 31.6912 39.8953 31.5627C40.6804 31.4343 41.9371 31.2777 42.6794 31.2063C43.4219 31.1349 45.3772 31.1065 47.033 31.135ZM52.7292 46.4241C50.0597 46.3527 49.6457 46.3809 49.5886 46.5237C49.5458 46.6253 49.5318 49.5938 49.5603 53.1331L49.5886 59.5569L52.8005 59.6282L52.7292 46.4241ZM41.5232 56.2024C40.9094 56.2024 40.7375 56.2592 40.3093 56.6731C39.9096 57.0585 39.8096 57.2734 39.781 57.7874C39.7525 58.2011 39.8246 58.5578 39.9958 58.8147C40.1244 59.0145 40.4813 59.3005 40.781 59.429C41.1092 59.5715 41.5087 59.6286 41.8083 59.5715C42.1367 59.5144 42.4793 59.3139 42.7791 58.9856C43.1501 58.5717 43.2361 58.3721 43.2361 57.844C43.2361 57.3016 43.1643 57.1163 42.7361 56.7024C42.3079 56.2599 42.1511 56.2024 41.5232 56.2024ZM39.9666 46.9807V53.6184H43.1072L43.0359 40.4133L39.9812 40.3284L39.9666 46.9807ZM51.1306 40.3567C50.9879 40.3567 50.6591 40.4427 50.4021 40.5569C50.1452 40.6569 49.8023 40.9272 49.6453 41.1555C49.4169 41.4838 49.3607 41.7126 49.4177 42.2834C49.4748 42.8545 49.5745 43.069 49.9314 43.3831C50.174 43.5971 50.5876 43.8112 50.8445 43.8684C51.149 43.9255 51.4921 43.8637 51.8728 43.6829C52.1726 43.5401 52.5151 43.2969 52.615 43.1399C52.7291 42.9827 52.8437 42.5973 52.8865 42.2834C52.9435 41.8554 52.8857 41.584 52.6716 41.2415C52.5145 40.9846 52.1582 40.6847 51.8728 40.5706C51.6018 40.4422 51.2593 40.3568 51.1306 40.3567Z" fill="currentColor"/>
</svg>
